{"glyphs":{"0":{"ha":875,"x_min":0,"x_max":0,"o":"m 436 990 b 47 481 129 990 47 757 b 436 -12 47 206 129 -12 b 824 481 742 -12 824 206 b 436 990 824 757 742 990 z m 436 11 b 267 481 314 11 267 100 b 436 967 267 863 311 967 b 604 481 556 967 604 863 b 436 11 604 100 563 11 z "},"1":{"ha":589,"x_min":0,"x_max":0,"o":"m 394 132 l 394 990 l 350 990 l 79 789 l 93 767 b 222 733 93 767 222 858 l 222 132 b 90 24 222 29 147 24 l 90 0 l 508 0 l 508 24 b 394 132 460 24 394 25 z "},"2":{"ha":685,"x_min":0,"x_max":0,"o":"m 618 257 b 492 178 588 201 539 178 l 204 178 b 396 442 204 178 326 354 b 564 758 506 581 564 667 b 326 990 564 885 465 990 b 57 729 326 990 89 989 l 79 724 b 371 461 185 943 569 801 l 54 0 l 571 0 l 642 257 z "},"3":{"ha":733,"x_min":0,"x_max":0,"o":"m 663 322 b 464 556 657 407 586 494 b 326 990 699 782 522 990 b 79 765 326 990 110 990 l 101 760 b 356 824 154 868 293 875 b 232 506 435 760 464 578 l 232 482 b 496 251 447 453 490 301 b 336 11 507 138 478 11 b 217 54 225 11 203 49 b 261 115 238 67 254 86 b 181 244 275 174 239 231 b 53 164 124 258 65 222 b 88 57 43 124 58 78 b 338 -12 153 8 231 -12 b 663 322 479 -12 678 74 z "},"4":{"ha":760,"x_min":0,"x_max":0,"o":"m 708 272 l 708 369 l 564 369 l 564 978 l 499 990 l 40 296 l 40 272 l 363 272 l 363 194 b 244 24 363 29 303 24 l 244 0 l 682 0 l 682 24 b 564 201 624 24 564 26 l 564 272 z m 363 369 l 186 369 b 168 443 158 369 117 371 l 363 738 z "},"5":{"ha":743,"x_min":0,"x_max":0,"o":"m 128 606 l 167 796 l 594 796 l 654 978 l 174 978 l 71 436 b 529 247 419 483 513 306 b 321 11 558 146 511 11 b 235 49 226 11 217 38 b 279 111 254 60 274 82 b 200 240 293 169 257 228 b 69 161 142 254 83 218 b 104 53 61 121 76 76 b 321 -12 133 29 193 -12 b 672 306 513 -12 672 94 b 128 606 672 457 556 671 z "},"6":{"ha":811,"x_min":0,"x_max":0,"o":"m 497 608 b 278 494 433 608 321 596 b 481 967 279 875 381 967 b 553 944 544 967 563 946 b 492 901 526 940 507 925 b 524 757 461 853 475 788 b 668 790 574 726 638 740 b 671 899 690 824 689 869 b 481 990 654 926 593 990 b 58 442 261 990 58 783 b 413 -12 58 165 178 -12 b 757 303 606 -12 757 88 b 497 608 757 456 694 608 z m 413 11 b 278 440 308 11 282 139 b 424 550 300 528 381 550 b 553 275 500 550 553 457 b 413 11 553 60 517 11 z "},"7":{"ha":772,"x_min":0,"x_max":0,"o":"m 97 978 l 64 718 l 88 718 b 226 799 117 774 179 799 l 596 799 b 251 0 307 440 251 225 l 449 0 b 619 799 449 139 454 504 l 724 978 z "},"8":{"ha":785,"x_min":0,"x_max":0,"o":"m 476 592 b 253 814 317 654 253 726 b 383 967 253 915 310 967 b 547 769 460 967 547 926 b 476 592 547 679 532 618 z m 557 182 b 403 11 557 67 492 11 b 203 219 271 11 203 101 b 299 440 203 358 264 422 b 351 411 319 428 328 424 b 557 182 436 367 557 296 z m 738 281 b 504 576 738 396 633 514 b 674 788 621 603 674 704 b 383 990 674 919 550 990 b 85 726 219 990 85 906 b 267 458 85 638 142 538 b 50 211 174 438 50 331 b 403 -12 50 44 197 -12 b 738 281 592 -12 738 65 z "},"9":{"ha":801,"x_min":0,"x_max":0,"o":"m 311 371 b 531 488 375 371 481 381 b 328 11 529 107 501 11 b 243 35 264 11 233 33 b 306 78 269 39 290 54 b 274 222 336 126 322 192 b 129 189 224 253 160 239 b 126 81 107 156 108 110 b 328 -12 143 53 190 -12 b 750 538 607 -12 750 196 b 396 990 750 814 631 990 b 51 676 203 990 51 892 b 311 371 51 524 114 371 z m 396 967 b 531 546 500 967 526 847 b 385 429 508 458 428 429 b 256 704 308 429 256 522 b 396 967 256 919 292 967 z "}," ":{"ha":368,"x_min":0,"x_max":0,"o":""},"!":{"ha":464,"x_min":0,"x_max":0,"o":"m 276 311 l 325 1035 l 142 1035 l 186 311 z m 336 93 b 231 -12 336 35 289 -12 b 126 93 174 -12 126 35 b 231 199 126 151 174 199 b 336 93 289 199 336 151 z "},"\"":{"ha":739,"x_min":0,"x_max":0,"o":"m 189 524 l 276 524 l 322 978 l 140 978 z m 476 524 l 564 524 l 611 978 l 428 978 z "},"#":{"ha":992,"x_min":0,"x_max":0,"o":"m 926 643 l 926 765 l 771 765 l 835 1036 l 708 1036 l 644 765 l 457 765 l 519 1036 l 393 1036 l 329 765 l 150 765 l 150 643 l 301 643 l 254 436 l 61 436 l 61 313 l 225 313 l 153 0 l 279 0 l 351 313 l 540 313 l 468 0 l 594 0 l 667 313 l 839 313 l 839 436 l 694 436 l 743 643 z m 617 643 l 568 436 l 381 436 l 428 643 z "},"$":{"ha":825,"x_min":0,"x_max":0,"o":"m 411 11 l 411 372 l 469 336 b 411 11 613 232 631 11 z m 388 649 l 364 665 b 388 967 183 783 238 967 z m 578 524 l 411 633 l 411 967 b 733 690 617 953 707 761 l 744 690 l 744 924 b 411 990 744 924 632 986 l 411 1160 l 388 1160 l 388 990 b 100 885 168 990 100 885 b 256 471 -15 733 58 594 l 388 388 l 388 13 b 75 340 183 49 103 263 l 64 340 l 64 74 b 388 -12 64 74 160 -1 l 388 -182 l 411 -182 l 411 -12 b 733 101 607 -12 676 32 b 578 524 838 253 761 403 z "},"%":{"ha":1404,"x_min":0,"x_max":0,"o":"m 347 0 l 438 0 l 1071 978 l 981 978 z m 389 943 b 196 690 236 943 196 826 b 389 446 196 553 236 446 b 581 690 540 446 581 553 b 389 943 581 826 540 943 z m 389 469 b 318 690 328 469 318 501 b 389 919 318 879 326 919 b 458 690 449 919 458 879 b 389 469 458 501 451 469 z m 1029 532 b 836 279 876 532 836 415 b 1029 35 836 142 876 35 b 1221 279 1181 35 1221 142 b 1029 532 1221 415 1181 532 z m 1029 58 b 958 279 968 58 958 90 b 1029 508 958 468 967 508 b 1099 279 1089 508 1099 468 b 1029 58 1099 90 1092 58 z "},"&":{"ha":1158,"x_min":0,"x_max":0,"o":"m 625 969 b 422 1028 582 1019 518 1044 b 289 649 267 1000 167 824 l 368 531 l 306 493 b 140 94 199 429 8 292 b 621 165 274 -104 563 6 l 694 57 b 907 -11 751 -26 907 -11 b 1086 182 997 -1 1086 58 l 1061 182 b 939 115 1046 129 994 115 b 819 176 939 115 861 114 l 711 336 b 806 397 742 403 806 426 b 836 338 807 374 818 353 b 964 347 875 304 932 310 b 954 475 997 386 993 443 b 853 492 926 497 885 499 b 699 354 817 483 751 456 l 536 599 b 625 969 743 753 674 911 z m 314 160 b 321 469 214 288 246 413 l 382 510 l 603 189 b 314 160 538 60 378 78 z m 521 621 l 421 771 b 467 993 354 869 407 972 b 603 951 511 1008 564 992 b 521 621 658 885 701 743 z "},"'":{"ha":386,"x_min":0,"x_max":0,"o":"m 151 522 l 239 522 l 286 978 l 104 978 z "},"(":{"ha":463,"x_min":0,"x_max":0,"o":"m 442 1035 b 110 353 110 804 110 500 b 439 -286 110 204 110 -100 l 458 -268 b 281 349 281 -107 281 200 b 461 1017 281 496 281 804 l 442 1035 z "},")":{"ha":463,"x_min":0,"x_max":0,"o":"m 349 354 b 17 1036 349 501 349 806 l -3 1018 b 178 350 178 806 178 497 b 0 -267 178 201 178 -106 l 19 -285 b 349 354 349 -99 349 206 z "},"*":{"ha":772,"x_min":0,"x_max":0,"o":"m 676 713 l 632 850 l 410 729 l 456 978 l 310 978 l 356 729 l 135 850 l 89 713 l 340 679 l 157 506 l 274 419 l 383 649 l 492 419 l 610 506 l 426 679 z "},"+":{"ha":993,"x_min":0,"x_max":0,"o":"m 913 494 l 560 494 l 560 860 l 431 860 l 431 494 l 78 494 l 78 365 l 431 365 l 431 0 l 560 0 l 560 365 l 913 365 z "},",":{"ha":378,"x_min":0,"x_max":0,"o":"m 250 -74 b 276 186 294 -7 346 117 b 114 186 232 231 158 231 b 115 24 69 140 69 67 b 193 -10 138 1 165 -7 b 118 -164 215 -12 197 -103 l 133 -183 b 250 -74 197 -149 231 -104 z "},"-":{"ha":617,"x_min":0,"x_max":0,"o":"m 526 289 l 526 418 l 89 418 l 89 289 z "},".":{"ha":411,"x_min":0,"x_max":0,"o":"m 322 110 b 206 228 322 175 269 228 b 88 110 140 228 88 175 b 206 -7 88 44 140 -7 b 322 110 269 -7 322 44 z "},"/":{"ha":597,"x_min":0,"x_max":0,"o":"m 574 1007 l 447 1007 l 19 -29 l 146 -29 z "},":":{"ha":386,"x_min":0,"x_max":0,"o":"m 314 110 b 194 229 314 176 260 229 b 75 110 128 229 75 176 b 194 -10 75 43 128 -10 b 314 110 260 -10 314 43 z m 314 535 b 194 654 314 600 260 654 b 75 535 128 654 75 600 b 194 415 75 469 128 415 b 314 535 260 415 314 469 z "},";":{"ha":386,"x_min":0,"x_max":0,"o":"m 314 535 b 194 654 314 600 261 654 b 75 535 128 654 75 600 b 194 415 75 468 128 415 b 314 535 261 415 314 468 z m 256 -74 b 131 -179 236 -104 194 -144 l 115 -160 b 193 -10 201 -108 215 -12 b 115 24 165 -7 138 1 b 114 186 69 67 69 140 b 276 186 158 231 232 231 b 256 -74 346 117 300 -7 z "},"<":{"ha":833,"x_min":0,"x_max":0,"o":"m 271 369 l 768 629 l 768 760 l 64 399 l 64 339 l 768 -22 l 768 107 z "},"=":{"ha":851,"x_min":0,"x_max":0,"o":"m 788 471 l 788 582 l 78 582 l 78 471 z m 788 158 l 788 269 l 78 269 l 78 158 z "},">":{"ha":833,"x_min":0,"x_max":0,"o":"m 65 107 l 65 -22 l 769 339 l 769 399 l 65 760 l 65 629 l 563 369 z "},"?":{"ha":824,"x_min":0,"x_max":0,"o":"m 388 228 b 271 111 322 228 271 176 b 388 -7 271 46 322 -7 b 506 111 453 -7 506 46 b 388 228 506 176 453 228 z m 703 801 b 226 985 693 990 444 1081 b 114 858 158 954 122 894 b 124 763 106 828 103 792 b 256 736 154 719 214 707 b 278 868 296 767 307 825 b 219 906 263 889 244 901 b 243 964 201 908 200 946 b 501 796 358 1008 489 956 b 426 547 514 667 492 603 b 353 326 338 474 344 381 l 389 332 b 503 496 382 415 428 476 b 703 801 583 517 711 599 z "},"@":{"ha":1239,"x_min":0,"x_max":0,"o":"m 733 867 b 53 256 404 879 64 639 b 579 -282 40 -189 376 -282 b 904 -174 808 -282 904 -174 l 890 -153 b 614 -229 890 -153 778 -239 b 222 292 133 -189 222 292 b 747 772 254 522 424 796 b 1085 349 1047 750 1085 503 b 892 49 1085 139 950 49 b 856 115 850 49 849 88 b 933 531 865 165 933 531 l 797 533 b 790 497 797 533 794 519 b 679 556 789 499 761 556 b 372 239 456 556 388 336 b 513 -12 358 140 385 -12 b 707 78 628 -12 693 60 b 794 -12 700 38 729 -12 b 1165 342 903 -12 1139 21 b 733 867 1193 678 972 857 z m 714 121 b 622 74 714 121 682 68 b 531 293 565 78 500 140 b 708 524 554 408 621 524 b 760 344 790 524 764 367 b 714 121 742 251 721 156 z "},"A":{"ha":983,"x_min":0,"x_max":0,"o":"m 847 125 b 494 978 847 125 835 161 l 471 978 l 231 344 b 24 24 94 15 60 26 l 24 0 l 365 0 l 365 24 b 232 274 146 13 232 274 l 561 274 l 603 172 b 567 24 603 172 675 24 l 567 0 l 964 0 l 964 24 b 847 125 928 26 894 14 z m 236 297 l 388 703 l 553 297 z "},"B":{"ha":892,"x_min":0,"x_max":0,"o":"m 514 501 b 763 742 542 501 763 535 b 389 978 763 986 582 978 l 51 978 l 51 967 b 132 786 113 967 132 872 l 132 190 b 51 13 132 96 111 13 l 51 0 l 389 0 b 828 249 629 0 828 6 b 514 501 828 486 604 501 z m 389 954 b 569 744 454 954 569 951 b 389 507 569 539 464 507 l 335 507 l 335 954 z m 389 24 l 335 24 l 335 483 l 389 483 b 624 256 482 483 624 476 b 389 24 624 21 510 24 z "},"C":{"ha":954,"x_min":0,"x_max":0,"o":"m 854 292 b 538 11 818 140 704 11 b 306 489 388 11 306 107 b 538 967 306 869 383 967 b 854 688 696 967 776 875 l 878 688 l 897 906 b 538 990 810 976 681 990 b 56 489 240 990 56 765 b 538 -12 56 213 240 -12 b 897 74 686 -12 794 6 l 878 292 z "},"D":{"ha":1067,"x_min":0,"x_max":0,"o":"m 418 978 l 51 978 l 51 954 b 156 786 113 954 156 872 l 156 190 b 51 24 156 96 111 24 l 51 0 l 418 0 b 1000 485 694 0 1000 79 b 418 978 1000 892 694 978 z m 418 24 l 357 24 l 357 954 l 418 954 b 757 485 554 954 757 918 b 418 24 757 53 554 24 z "},"E":{"ha":907,"x_min":0,"x_max":0,"o":"m 796 303 b 369 24 738 24 369 24 l 319 24 l 319 482 l 369 482 b 594 338 369 482 581 482 l 618 338 l 618 650 l 594 650 b 369 506 581 506 369 506 l 319 506 l 319 954 l 369 954 b 778 714 369 954 746 954 l 801 714 l 801 978 l 38 978 l 38 954 b 118 786 99 954 118 872 l 118 190 b 38 24 118 96 96 24 l 38 0 l 819 0 l 819 303 z "},"F":{"ha":836,"x_min":0,"x_max":0,"o":"m 35 978 l 35 954 b 115 786 96 954 115 872 l 115 190 b 35 24 115 96 94 24 l 35 0 l 436 0 l 436 24 b 317 190 376 24 317 33 l 317 481 l 365 481 b 604 338 365 481 579 486 l 628 338 l 628 650 l 604 650 b 365 507 579 501 365 507 l 317 507 l 317 954 l 365 954 b 790 714 365 954 742 967 l 814 714 l 814 978 z "},"G":{"ha":1035,"x_min":0,"x_max":0,"o":"m 608 389 l 608 365 b 726 169 688 365 726 358 b 542 11 726 35 704 11 b 308 489 386 11 308 107 b 542 967 308 871 383 967 b 839 679 707 967 799 896 l 886 679 l 896 917 b 542 990 810 974 686 990 b 54 489 242 990 54 765 b 542 -12 54 213 242 -12 b 904 46 690 -12 818 13 b 1000 365 904 339 922 365 l 1000 389 z "},"H":{"ha":914,"x_min":0,"x_max":0,"o":"m 885 954 l 885 978 l 596 978 l 596 954 b 629 779 635 942 629 886 l 629 482 l 293 482 l 293 779 b 326 954 293 886 288 942 l 326 978 l 36 978 l 36 954 b 99 779 103 942 99 886 l 99 189 b 36 24 99 75 110 43 l 36 0 l 326 0 l 326 24 b 293 189 288 38 293 75 l 293 454 l 629 454 l 629 189 b 596 24 629 75 633 38 l 596 0 l 885 0 l 885 24 b 824 189 813 43 824 75 l 824 779 b 885 954 824 886 819 942 z "},"I":{"ha":542,"x_min":0,"x_max":0,"o":"m 54 978 l 54 954 b 172 831 115 954 172 917 l 172 168 b 54 24 172 74 114 24 l 54 0 l 492 0 l 492 24 b 374 168 433 24 374 74 l 374 831 b 492 954 374 917 432 954 l 492 978 z "},"J":{"ha":615,"x_min":0,"x_max":0,"o":"m 119 978 l 119 954 b 233 657 233 954 233 918 l 233 253 b 3 -208 233 -49 122 -165 l 8 -232 b 440 253 235 -199 440 -82 l 440 826 b 561 954 440 915 499 954 l 561 978 l 119 978 z "},"K":{"ha":1131,"x_min":0,"x_max":0,"o":"m 47 978 l 47 954 b 146 831 107 954 146 917 l 146 171 b 47 24 146 76 106 24 l 47 0 l 451 0 l 451 24 b 347 171 392 24 347 76 l 347 831 b 467 954 347 932 406 954 l 467 978 z m 917 114 b 578 567 917 114 903 132 b 1068 954 878 951 975 954 l 1068 978 l 610 978 l 610 954 b 618 676 857 949 618 676 l 426 444 b 567 251 426 444 486 365 b 893 0 713 40 746 0 l 1113 0 l 1113 24 b 917 114 1075 24 985 24 z "},"L":{"ha":926,"x_min":0,"x_max":0,"o":"m 817 301 b 401 24 769 24 401 24 l 351 24 l 351 831 b 481 954 351 931 421 954 l 481 978 l 40 978 l 40 954 b 150 831 100 954 150 915 l 150 179 b 51 24 150 85 111 24 l 51 0 l 840 0 l 840 301 z "},"M":{"ha":1372,"x_min":0,"x_max":0,"o":"m 1228 168 l 1228 832 b 1335 954 1228 917 1275 954 l 1335 978 l 1028 978 l 750 274 l 415 978 l 65 978 l 65 954 b 222 858 100 951 169 951 l 222 351 b 14 24 222 351 222 24 l 14 0 l 435 0 l 435 24 b 246 351 243 24 246 351 l 246 821 l 635 -12 l 658 -12 l 1028 913 l 1028 168 b 928 24 1028 74 986 24 l 928 0 l 1347 0 l 1347 24 b 1228 168 1288 24 1228 74 z "},"N":{"ha":1167,"x_min":0,"x_max":0,"o":"m 722 978 l 722 954 b 913 625 914 956 913 625 l 913 288 l 353 978 l 13 978 l 13 954 b 178 856 49 951 89 967 l 232 788 l 232 354 b 24 24 232 354 233 24 l 24 0 l 446 0 l 446 24 b 256 354 254 24 256 354 l 256 763 l 863 0 l 936 0 l 936 625 b 1143 954 936 625 933 956 l 1143 978 z "},"O":{"ha":1078,"x_min":0,"x_max":0,"o":"m 536 990 b 57 482 231 990 57 757 b 536 -12 57 206 231 -12 b 1015 482 842 -12 1015 206 b 536 990 1015 757 842 990 z m 536 11 b 294 482 371 11 294 100 b 536 967 294 863 371 967 b 775 482 700 967 775 863 b 536 11 775 100 700 11 z "},"P":{"ha":904,"x_min":0,"x_max":0,"o":"m 386 417 b 858 697 663 417 858 465 b 386 978 858 929 663 978 l 35 978 l 35 954 b 135 794 96 954 135 881 l 135 190 b 43 24 135 96 101 24 l 43 0 l 500 0 l 500 24 b 336 190 440 24 336 33 l 336 417 z m 336 954 l 386 954 b 631 697 522 954 631 944 b 386 440 631 451 522 440 l 336 440 z "},"Q":{"ha":1071,"x_min":0,"x_max":0,"o":"m 854 -161 b 1054 -124 964 -199 1026 -143 l 1071 -142 l 922 -269 b 450 -228 815 -361 678 -324 l 331 -178 b 144 -206 224 -132 174 -183 l 126 -187 b 617 -81 376 24 617 -81 l 854 -161 z m 536 990 b 57 482 231 990 57 757 b 536 -12 57 206 231 -12 b 1015 482 842 -12 1015 206 b 536 990 1015 757 842 990 z m 536 11 b 294 482 371 11 294 100 b 536 967 294 863 371 967 b 775 482 700 967 775 863 b 536 11 775 100 700 11 z "},"R":{"ha":1011,"x_min":0,"x_max":0,"o":"m 839 160 b 569 461 771 410 660 471 b 840 713 735 481 840 543 b 369 978 840 944 646 978 l 25 978 l 25 954 b 125 831 86 954 125 917 l 125 168 b 25 24 125 74 85 24 l 25 0 l 429 0 l 429 24 b 326 168 371 24 326 74 l 326 446 l 392 446 b 565 303 392 446 519 446 b 874 0 663 1 626 1 l 1001 0 l 1001 24 b 839 160 965 26 867 54 z m 369 469 l 326 469 l 326 954 l 369 954 b 614 713 504 954 614 954 b 369 469 614 471 504 469 z "},"S":{"ha":856,"x_min":0,"x_max":0,"o":"m 578 524 l 364 665 b 388 967 183 783 238 967 b 721 690 610 967 694 764 l 744 690 l 744 924 b 388 990 744 924 625 990 b 100 885 168 990 100 885 b 256 471 -15 733 58 594 l 469 336 b 444 11 639 213 593 11 b 88 340 197 11 118 256 l 64 340 l 64 74 b 444 -12 64 74 175 -12 b 733 101 668 -12 733 101 b 578 524 838 253 761 403 z "},"T":{"ha":969,"x_min":0,"x_max":0,"o":"m 26 978 l 26 699 l 50 699 b 356 954 61 947 356 954 l 382 954 l 382 168 b 264 24 382 74 322 24 l 264 0 l 701 0 l 701 24 b 583 168 643 24 583 74 l 583 954 l 610 954 b 917 699 610 954 906 947 l 940 699 l 940 978 l 26 978 z "},"U":{"ha":1044,"x_min":0,"x_max":0,"o":"m 1022 978 l 603 978 l 603 954 b 792 746 794 956 792 746 l 792 333 b 563 71 792 158 668 71 b 329 332 431 71 329 168 l 329 832 b 458 954 329 932 399 954 l 458 978 l 17 978 l 17 954 b 128 832 78 954 128 917 l 128 342 b 472 -12 128 115 283 -12 b 815 333 594 -12 815 36 l 815 746 b 1022 954 815 746 813 956 z "},"V":{"ha":1076,"x_min":0,"x_max":0,"o":"m 654 978 l 654 954 b 757 629 883 954 757 629 l 611 264 l 399 793 b 460 954 399 793 346 954 l 460 978 l 18 978 l 18 954 b 150 842 54 954 104 953 b 506 0 150 842 165 818 l 529 0 l 779 622 b 1047 954 919 954 983 954 l 1047 978 z "},"W":{"ha":1558,"x_min":0,"x_max":0,"o":"m 1128 978 l 1128 954 b 1232 629 1364 954 1232 629 l 1100 281 l 903 793 b 965 954 903 793 840 954 l 965 978 l 522 978 l 522 954 b 650 842 558 954 607 954 l 729 635 l 600 286 l 400 793 b 463 954 400 793 340 954 l 463 978 l 19 978 l 19 954 b 147 842 56 954 103 954 l 496 0 l 519 0 l 742 600 l 990 0 l 1014 0 l 1254 622 b 1538 954 1382 921 1474 954 l 1538 978 z "},"X":{"ha":1153,"x_min":0,"x_max":0,"o":"m 961 136 b 646 579 961 136 781 388 l 725 682 b 1104 954 935 957 1068 954 l 1104 978 l 649 978 l 649 954 b 707 704 886 954 707 704 l 631 603 l 489 794 b 510 954 422 888 447 954 l 510 978 l 19 978 l 19 954 b 194 840 56 954 111 949 b 507 408 194 840 297 715 l 428 304 b 75 24 208 11 108 24 l 75 0 l 492 0 l 492 24 b 447 282 260 24 447 282 l 524 385 l 671 179 b 668 24 671 179 763 49 l 668 0 l 1126 0 l 1126 24 b 961 136 1090 24 1038 36 z "},"Y":{"ha":1071,"x_min":0,"x_max":0,"o":"m 636 978 l 636 954 b 713 671 836 954 713 671 l 619 478 l 424 797 b 456 956 329 957 426 956 l 456 978 l 13 978 l 13 956 b 161 846 47 956 100 951 b 432 383 161 846 228 744 l 432 168 b 314 24 432 74 372 24 l 314 0 l 751 0 l 751 24 b 633 168 693 24 633 74 l 633 454 l 725 647 b 1053 954 881 951 1017 954 l 1053 978 z "},"Z":{"ha":857,"x_min":0,"x_max":0,"o":"m 825 978 l 104 978 l 78 697 l 106 697 b 519 954 154 838 335 954 l 585 954 l 33 0 l 767 0 l 801 324 l 776 324 b 376 24 746 239 589 24 l 311 24 z "},"[":{"ha":463,"x_min":0,"x_max":0,"o":"m 157 1021 l 157 -203 l 442 -203 l 442 -179 b 294 -74 369 -179 294 -175 l 294 879 b 442 997 294 996 367 997 l 442 1021 z "},"\\":{"ha":603,"x_min":0,"x_max":0,"o":"m 451 -28 l 578 -28 l 146 1021 l 19 1021 z "},"]":{"ha":463,"x_min":0,"x_max":0,"o":"m 15 1021 l 15 997 b 163 879 90 997 163 996 l 163 -74 b 15 -179 163 -175 88 -179 l 15 -203 l 300 -203 l 300 1021 z "},"^":{"ha":799,"x_min":0,"x_max":0,"o":"m 410 978 l 378 978 l 124 522 l 186 522 l 393 739 l 604 522 l 667 522 z "},"_":{"ha":778,"x_min":0,"x_max":0,"o":"m 0 -96 l 0 -181 l 778 -181 l 778 -96 z "},"`":{"ha":486,"x_min":0,"x_max":0,"o":"m 161 1000 l 6 951 l 344 774 l 396 774 z "},"a":{"ha":732,"x_min":0,"x_max":0,"o":"m 417 143 b 325 72 404 110 372 72 b 235 164 235 72 235 164 b 417 331 235 235 281 300 b 417 143 417 331 417 146 z m 658 72 b 592 169 590 72 592 169 l 592 376 b 360 654 592 540 542 654 b 225 626 360 654 288 660 b 117 525 149 586 131 549 b 121 442 103 501 104 468 b 231 421 146 406 194 397 b 251 531 267 446 276 494 b 200 561 239 549 221 558 b 240 608 190 563 196 586 b 417 442 336 658 417 586 l 417 356 b 57 129 174 294 57 281 b 217 -12 57 -12 217 -12 b 418 100 315 -12 397 39 b 557 -12 433 -12 557 -12 b 719 86 644 -12 708 42 l 696 96 b 658 72 688 72 658 72 z "},"b":{"ha":824,"x_min":0,"x_max":0,"o":"m 428 11 b 263 243 349 11 263 68 l 263 419 b 407 596 263 518 313 596 b 572 301 521 596 572 524 b 428 11 572 89 529 11 z m 476 654 b 263 536 410 654 307 619 l 263 1036 l 19 985 l 19 961 b 90 872 76 940 90 919 l 90 7 b 226 58 90 -15 176 15 b 429 -12 272 13 346 -12 b 771 313 624 -12 771 89 b 476 654 771 532 632 654 z "},"c":{"ha":694,"x_min":0,"x_max":0,"o":"m 625 179 b 414 111 593 133 483 96 b 238 349 318 132 238 199 b 422 631 238 588 372 631 b 496 601 478 631 508 607 b 453 546 475 590 458 572 b 518 433 439 497 468 446 b 632 500 568 419 618 451 b 604 593 642 533 628 572 b 422 654 581 614 521 654 b 63 324 185 654 63 483 b 368 -12 63 161 186 -12 b 644 167 542 -12 625 96 z "},"d":{"ha":818,"x_min":0,"x_max":0,"o":"m 554 203 b 401 36 554 106 496 36 b 243 343 289 36 243 119 b 389 631 243 554 288 631 b 554 399 468 631 554 574 z m 726 135 l 726 1036 l 483 985 l 483 961 b 554 878 540 940 554 926 l 554 613 b 388 654 510 639 451 654 b 46 331 193 654 46 554 b 342 -12 46 111 185 -12 b 554 100 407 -12 510 18 l 554 14 b 593 -11 554 14 554 -17 l 797 19 l 797 43 b 726 135 740 50 726 67 z "},"e":{"ha":728,"x_min":0,"x_max":0,"o":"m 229 357 b 368 631 229 490 286 631 b 501 357 444 631 501 532 z m 375 654 b 50 318 183 654 50 514 b 357 -12 50 156 175 -12 b 647 169 543 -12 625 97 l 624 182 b 403 106 589 117 478 89 b 229 333 310 126 240 197 l 671 333 b 375 654 671 550 576 654 z "},"f":{"ha":464,"x_min":0,"x_max":0,"o":"m 513 965 b 365 1035 499 989 442 1035 b 107 642 197 1035 107 963 l 17 642 l 18 618 l 107 618 l 107 157 b 53 24 107 86 106 39 l 53 0 l 338 0 l 338 24 b 281 157 288 38 281 81 l 281 618 l 425 618 l 429 642 l 281 642 b 368 1011 281 929 314 1011 b 419 982 419 1011 440 985 b 371 944 399 978 381 965 b 408 833 350 903 367 854 b 519 871 449 814 499 831 b 513 965 533 900 529 940 z "},"g":{"ha":794,"x_min":0,"x_max":0,"o":"m 771 650 b 693 675 751 672 719 681 b 563 593 661 669 603 651 b 363 654 518 631 454 654 b 96 446 193 654 96 558 b 210 269 96 372 140 300 b 76 92 75 218 76 92 b 149 -25 76 29 111 -7 b 31 -274 67 -61 -18 -172 b 532 -292 85 -387 338 -400 b 685 -93 678 -210 685 -93 b 454 128 711 117 550 128 l 260 128 b 235 258 113 128 197 242 b 363 238 268 244 308 238 b 631 446 533 238 631 333 b 581 576 631 496 614 542 b 636 601 604 606 638 613 b 653 546 633 582 639 563 b 764 539 682 514 732 510 b 771 650 797 568 800 618 z m 297 -58 l 486 -58 b 600 -132 588 -58 600 -132 b 519 -271 600 -132 611 -215 b 144 -222 389 -347 221 -314 b 174 -39 144 -222 46 -111 b 297 -58 228 -61 282 -58 z m 363 261 b 258 446 301 261 258 290 b 363 631 258 601 293 631 b 468 446 422 631 468 601 b 363 261 468 290 426 261 z "},"h":{"ha":749,"x_min":0,"x_max":0,"o":"m 669 171 l 669 439 b 494 654 669 606 606 654 b 265 504 408 654 292 578 l 265 1036 l 22 978 l 22 954 b 92 871 78 933 92 919 l 92 171 b 36 25 92 100 89 40 l 36 0 l 322 0 l 322 25 b 265 171 272 38 265 94 l 265 467 b 381 550 294 522 342 550 b 497 433 461 550 497 513 l 497 171 b 442 24 497 100 494 39 l 442 0 l 726 0 l 726 24 b 669 171 678 36 669 94 z "},"i":{"ha":392,"x_min":0,"x_max":0,"o":"m 278 860 b 182 954 278 913 235 954 b 88 860 129 954 88 913 b 182 765 88 807 129 765 b 278 860 235 765 278 807 z m 282 169 l 282 654 l 39 599 l 39 575 b 110 478 96 544 110 525 l 110 169 b 54 24 110 99 107 40 l 54 0 l 339 0 l 339 24 b 282 169 289 38 282 92 z "},"j":{"ha":390,"x_min":0,"x_max":0,"o":"m 110 38 b 25 -293 110 38 110 -272 l 25 -317 b 282 69 163 -282 282 -193 l 282 654 l 40 599 l 40 575 b 110 472 97 544 110 519 z m 279 860 b 183 954 279 913 236 954 b 89 860 132 954 89 913 b 183 765 89 807 132 765 b 279 860 236 765 279 807 z "},"k":{"ha":776,"x_min":0,"x_max":0,"o":"m 257 168 l 257 1036 l 14 985 l 14 961 b 83 871 69 940 83 919 l 83 168 b 28 24 83 97 81 39 l 28 0 l 314 0 l 314 24 b 257 168 264 36 257 92 z m 628 93 b 419 383 628 93 625 93 b 771 618 604 611 746 615 l 771 642 l 433 642 l 433 618 b 415 422 614 624 415 422 l 285 281 b 363 164 285 281 321 225 b 564 0 456 25 468 0 l 760 0 l 760 24 b 628 93 736 25 674 29 z "},"l":{"ha":368,"x_min":0,"x_max":0,"o":"m 275 168 l 275 1036 l 32 985 l 32 961 b 101 871 88 940 101 919 l 101 168 b 46 24 101 97 99 39 l 46 0 l 331 0 l 331 24 b 275 168 282 36 275 92 z "},"m":{"ha":1104,"x_min":0,"x_max":0,"o":"m 1083 24 b 1026 169 1033 36 1026 93 l 1026 443 b 851 654 1026 611 960 654 b 640 507 764 654 669 592 b 467 654 624 610 564 654 b 257 511 379 654 294 592 l 257 654 l 14 599 l 14 575 b 83 471 71 544 83 519 l 83 167 b 29 24 83 96 82 39 l 29 0 l 314 0 l 314 24 b 257 167 265 38 257 90 l 257 440 b 368 554 257 490 317 554 b 468 439 431 554 468 517 l 468 169 b 413 24 468 99 465 39 l 413 0 l 699 0 l 699 24 b 642 169 649 36 642 93 l 642 436 l 642 436 b 751 554 642 492 700 554 b 853 439 814 554 853 517 l 853 169 b 797 24 853 99 850 39 l 797 0 l 1083 0 l 1083 24 z "},"n":{"ha":749,"x_min":0,"x_max":0,"o":"m 661 169 l 661 443 b 486 654 661 611 594 654 b 257 506 399 654 289 590 l 257 654 l 14 599 l 14 575 b 83 481 71 544 83 529 l 83 167 b 29 24 83 96 82 39 l 29 0 l 314 0 l 314 24 b 257 167 265 38 257 90 l 257 440 b 375 554 257 496 321 554 b 488 439 444 554 488 506 l 488 169 b 432 24 488 99 485 39 l 432 0 l 718 0 l 718 24 b 661 169 668 36 661 93 z "},"o":{"ha":772,"x_min":0,"x_max":0,"o":"m 388 654 b 57 321 176 654 57 504 b 388 -12 57 139 176 -12 b 718 321 600 -12 718 139 b 388 654 718 504 600 654 z m 388 11 b 261 321 288 11 261 69 b 388 631 261 572 288 631 b 513 321 488 631 513 572 b 388 11 513 69 488 11 z "},"p":{"ha":838,"x_min":0,"x_max":0,"o":"m 428 11 b 265 199 357 11 278 57 l 265 453 b 408 603 275 536 325 603 b 574 303 521 603 574 526 b 428 11 574 92 529 11 z m 476 654 b 265 542 411 654 310 624 l 265 654 l 24 599 l 24 575 b 93 497 79 554 93 544 l 93 -210 b 38 -344 93 -281 90 -329 l 38 -368 l 322 -368 l 322 -344 b 265 -210 274 -332 265 -287 l 265 31 b 431 -12 308 3 367 -12 b 772 315 625 -12 772 92 b 476 654 772 533 633 654 z "},"q":{"ha":821,"x_min":0,"x_max":0,"o":"m 551 190 b 413 22 551 93 507 22 b 256 344 300 22 256 121 b 400 631 256 556 299 631 b 551 399 479 631 551 574 z m 725 -211 l 725 642 b 594 603 725 663 647 644 b 415 654 550 636 486 654 b 74 332 221 654 74 556 b 369 -12 74 113 213 -12 b 551 58 422 -12 500 7 l 551 -211 b 497 -344 551 -282 549 -329 l 497 -368 l 782 -368 l 782 -344 b 725 -211 732 -332 725 -287 z "},"r":{"ha":590,"x_min":0,"x_max":0,"o":"m 428 647 b 264 497 394 633 338 613 l 264 654 l 19 599 l 19 575 b 89 478 76 546 89 525 l 89 169 b 33 24 89 97 88 40 l 33 0 l 321 0 l 321 24 b 264 169 271 38 264 92 l 264 458 b 372 540 315 542 372 556 b 404 472 372 515 383 492 b 550 483 449 435 513 440 b 540 629 588 525 583 592 b 428 647 510 654 457 660 z "},"s":{"ha":617,"x_min":0,"x_max":0,"o":"m 421 360 l 281 447 b 289 631 160 524 199 631 b 494 457 432 631 476 506 l 518 457 l 518 613 b 289 654 518 613 449 654 b 97 585 150 654 97 585 b 192 290 21 485 57 372 l 332 206 b 322 11 438 136 421 11 b 94 226 160 11 115 172 l 71 226 l 71 51 b 322 -12 71 51 154 -12 b 517 63 464 -12 517 63 b 421 360 586 163 544 283 z "},"t":{"ha":492,"x_min":0,"x_max":0,"o":"m 374 86 b 271 204 304 86 271 126 l 271 618 l 431 618 l 436 642 l 271 642 l 271 857 l 97 828 l 97 642 l 24 642 l 28 618 l 97 618 l 97 200 b 272 -12 97 32 163 -12 b 478 122 365 -12 450 57 l 457 135 b 374 86 444 114 414 86 z "},"u":{"ha":779,"x_min":0,"x_max":0,"o":"m 685 128 l 685 654 l 446 628 l 446 604 b 511 493 517 596 511 578 l 511 179 b 390 89 482 124 429 89 b 274 204 310 89 274 126 l 274 654 l 24 628 l 24 604 b 101 497 104 593 101 581 l 101 200 b 276 -12 101 33 167 -12 b 511 138 363 -12 478 58 l 511 15 b 550 -11 511 15 513 -17 l 756 25 l 756 49 b 685 128 697 56 685 61 z "},"v":{"ha":725,"x_min":0,"x_max":0,"o":"m 454 642 l 454 618 b 519 408 606 618 519 408 l 443 219 l 306 514 b 332 618 306 514 254 618 l 332 642 l 4 642 l 4 618 b 99 544 29 618 65 618 b 357 -12 99 544 111 521 l 379 -12 l 544 403 b 725 618 633 617 693 618 l 725 642 z "},"w":{"ha":1131,"x_min":0,"x_max":0,"o":"m 847 642 l 847 618 b 921 408 1001 618 921 408 l 850 224 l 706 528 b 742 618 706 528 654 618 l 742 642 l 413 642 l 413 618 b 501 558 436 618 469 618 b 549 457 501 558 507 549 l 460 224 l 315 528 b 350 618 315 528 268 618 l 350 642 l 22 642 l 22 618 b 110 558 44 618 79 618 b 375 -12 110 558 129 521 l 399 -12 l 563 428 l 765 -12 l 788 -12 l 947 403 b 1119 618 1025 615 1094 618 l 1119 642 z "},"x":{"ha":760,"x_min":0,"x_max":0,"o":"m 628 82 l 425 390 l 474 454 b 718 618 614 629 699 615 l 718 642 l 404 642 l 404 618 b 460 472 556 618 460 472 l 413 411 l 333 532 b 349 618 288 597 315 618 l 349 642 l 17 642 l 17 618 b 113 569 38 615 64 628 l 311 272 l 251 190 b 32 24 126 24 53 24 l 32 0 l 346 0 l 346 24 b 269 169 175 24 269 169 l 325 250 l 410 121 b 411 24 410 121 479 24 l 411 0 l 750 0 l 750 24 b 628 82 729 24 668 24 z "},"y":{"ha":751,"x_min":0,"x_max":0,"o":"m 458 642 l 458 618 b 528 407 619 619 528 407 l 454 219 l 307 533 b 343 618 307 533 271 618 l 343 642 l 15 642 l 15 618 b 103 564 36 618 81 618 b 365 -12 103 564 279 186 l 313 -156 b 251 -207 290 -214 257 -224 b 204 -150 244 -183 229 -161 b 76 -199 156 -128 99 -150 b 125 -326 56 -247 76 -304 b 232 -312 158 -342 207 -333 b 336 -158 258 -292 300 -253 l 549 401 b 731 618 638 615 701 618 l 731 642 z "},"z":{"ha":643,"x_min":0,"x_max":0,"o":"m 597 642 l 90 642 l 83 458 l 107 458 b 401 618 139 550 215 618 l 40 0 l 554 0 l 567 211 l 543 211 b 258 24 524 156 467 24 z "},"{":{"ha":463,"x_min":0,"x_max":0,"o":"m 303 4 l 303 204 b 119 389 303 356 221 389 b 303 589 221 389 303 436 l 303 789 b 385 997 303 933 328 976 l 385 1021 b 178 789 275 1006 178 949 l 178 626 b 68 400 178 407 118 413 l 68 376 b 178 167 119 367 178 372 l 178 4 b 385 -228 178 -156 275 -212 l 385 -204 b 303 4 328 -185 303 -140 z "},"|":{"ha":308,"x_min":0,"x_max":0,"o":"m 101 -228 l 207 -228 l 207 1021 l 101 1021 z "},"}":{"ha":463,"x_min":0,"x_max":0,"o":"m 156 4 b 74 -204 156 -140 131 -185 l 74 -228 b 281 4 183 -212 281 -156 l 281 167 b 390 376 281 372 339 367 l 390 400 b 281 626 340 413 281 407 l 281 789 b 74 1021 281 949 183 1006 l 74 997 b 156 789 131 976 156 933 l 156 589 b 339 389 156 436 238 389 b 156 204 238 389 156 356 z "},"~":{"ha":833,"x_min":0,"x_max":0,"o":"m 483 272 b 750 458 483 272 650 217 l 729 467 b 521 400 693 390 568 382 l 354 460 b 82 276 354 460 182 518 l 104 267 b 317 332 140 343 269 349 z "},"":{"ha":0,"x_min":0,"x_max":0,"o":""}," ":{"ha":368,"x_min":0,"x_max":0,"o":""},"¡":{"ha":443,"x_min":0,"x_max":0,"o":"m 181 471 l 133 -243 l 314 -243 l 269 471 z m 122 688 b 226 583 122 629 168 583 b 329 688 283 583 329 629 b 226 790 329 744 283 790 b 122 688 168 790 122 744 z "},"¢":{"ha":740,"x_min":0,"x_max":0,"o":"m 279 349 b 440 629 279 556 381 617 l 440 114 b 279 349 351 139 279 206 z m 667 179 b 464 108 636 135 533 99 l 464 631 b 538 601 519 631 550 607 b 494 546 517 590 500 572 b 560 433 481 497 510 446 b 674 500 610 419 660 451 b 646 593 683 533 669 572 b 464 654 622 614 563 654 l 464 824 l 440 824 l 440 654 b 104 324 218 643 104 478 b 440 -12 104 161 206 -12 l 440 -164 l 464 -164 l 464 -12 b 686 167 600 6 668 103 z "},"£":{"ha":931,"x_min":0,"x_max":0,"o":"m 197 -12 b 447 74 300 -12 383 4 b 726 -6 544 18 643 -31 b 869 190 726 -6 871 35 l 846 196 b 629 144 832 146 733 111 l 526 176 b 519 451 572 260 578 360 l 482 503 l 719 503 l 719 526 l 468 526 b 600 990 254 907 388 1043 b 639 957 626 983 664 957 b 569 932 614 957 589 953 b 571 790 531 893 531 829 b 713 792 611 751 675 751 b 738 894 740 819 749 863 b 607 1011 721 935 694 974 b 249 526 421 1092 69 940 l 129 526 l 129 503 l 258 503 b 335 382 276 469 313 417 b 401 217 374 322 401 265 l 350 233 b 50 89 74 322 29 153 b 197 -12 81 -8 183 -12 z m 76 96 b 254 183 60 157 126 238 b 385 113 294 165 333 143 b 196 11 349 53 289 11 b 76 96 178 11 99 14 z "},"¤":{"ha":850,"x_min":0,"x_max":0,"o":"m 757 479 b 696 674 757 551 735 619 l 819 796 l 739 876 l 615 754 b 422 815 561 793 493 815 b 228 754 350 815 283 793 l 106 876 l 25 796 l 147 674 b 86 479 110 619 86 551 b 147 286 86 407 110 342 l 25 164 l 106 82 l 228 206 b 422 144 283 167 350 144 b 615 206 493 144 561 167 l 739 82 l 819 164 l 696 286 b 757 479 735 342 757 407 z m 422 264 b 206 479 303 264 206 361 b 422 696 206 599 303 696 b 638 479 542 696 638 599 b 422 264 638 361 542 264 z "},"¥":{"ha":975,"x_min":0,"x_max":0,"o":"m 586 978 l 586 954 b 663 671 786 954 663 671 l 569 478 l 374 797 b 406 956 279 957 376 956 l 406 978 l -37 978 l -37 956 b 111 846 -3 956 50 951 b 342 454 111 846 168 757 l 124 454 l 124 431 l 354 431 l 382 383 l 382 331 l 124 331 l 124 307 l 382 307 l 382 168 b 264 24 382 74 322 24 l 264 0 l 701 0 l 701 24 b 583 168 643 24 583 74 l 583 307 l 813 307 l 813 331 l 583 331 l 583 431 l 813 431 l 813 454 l 583 454 l 675 647 b 1003 954 831 951 967 954 l 1003 978 z "},"¦":{"ha":308,"x_min":0,"x_max":0,"o":"m 211 1021 l 99 1021 l 99 500 l 211 500 z m 211 258 l 99 258 l 99 -265 l 211 -265 z "},"§":{"ha":772,"x_min":0,"x_max":0,"o":"m 546 86 b 549 561 801 253 710 460 l 376 669 b 268 849 288 725 261 785 b 456 974 276 935 350 982 b 494 954 494 968 503 957 b 453 915 474 947 464 938 b 496 797 432 871 451 818 b 615 840 542 776 593 796 b 604 933 629 871 624 910 b 457 997 588 954 533 990 b 150 789 363 1007 171 1006 b 240 553 142 701 169 618 b 225 85 -24 379 67 188 l 397 -26 b 494 -203 486 -85 501 -139 b 319 -328 486 -289 422 -340 b 265 -311 281 -324 257 -314 b 321 -269 288 -304 310 -292 b 278 -151 342 -225 322 -172 b 160 -194 232 -131 179 -150 b 169 -287 144 -225 150 -264 b 318 -351 186 -308 239 -343 b 635 -143 411 -361 614 -360 b 546 86 644 -58 603 32 z m 476 140 b 310 242 476 140 374 200 b 263 533 211 308 58 396 l 263 533 b 297 507 272 525 285 515 b 464 403 297 507 401 444 b 525 106 563 338 722 253 b 476 140 510 118 494 131 z "},"¨":{"ha":406,"x_min":0,"x_max":0,"o":"m 153 897 b 71 978 153 942 115 978 b -12 897 25 978 -12 942 b 71 814 -12 851 25 814 b 153 897 115 814 153 851 z m 414 897 b 332 978 414 942 376 978 b 250 897 286 978 250 942 b 332 814 250 851 286 814 b 414 897 376 814 414 851 z "},"©":{"ha":1132,"x_min":0,"x_max":0,"o":"m 565 1036 b 42 513 275 1036 42 801 b 565 -11 42 224 275 -11 b 1089 513 854 -11 1089 224 b 565 1036 1089 801 854 1036 z m 565 94 b 149 513 336 94 149 283 b 565 932 149 742 336 932 b 981 513 793 932 981 742 b 565 94 981 283 793 94 z m 729 383 b 561 240 707 261 635 240 b 431 499 497 240 431 283 b 561 758 431 714 494 758 b 729 615 629 758 707 738 l 753 615 l 760 735 b 561 782 711 774 642 782 b 289 499 393 782 289 656 b 561 217 289 343 393 217 b 760 265 644 217 701 226 l 753 383 z "},"ª":{"ha":443,"x_min":0,"x_max":0,"o":"m 217 713 b 169 678 210 696 194 678 b 121 722 121 678 121 722 b 217 801 121 760 146 785 b 217 713 217 801 217 714 z m 343 675 b 308 726 308 672 308 726 l 308 835 b 188 979 308 919 283 979 b 114 965 188 979 147 983 b 60 911 79 947 67 926 b 63 868 54 899 53 881 b 119 858 75 850 101 844 b 131 914 138 869 143 896 b 103 929 125 924 115 929 b 121 946 99 929 101 938 b 217 868 172 968 217 943 l 217 825 b 29 704 89 793 29 785 b 113 631 29 631 113 631 b 218 682 164 631 208 654 b 292 631 225 631 292 631 b 375 682 343 631 371 657 l 357 689 b 343 675 354 675 343 675 z "},"«":{"ha":847,"x_min":0,"x_max":0,"o":"m 442 701 l 121 369 l 442 46 l 442 100 l 271 369 l 442 647 z m 725 701 l 404 369 l 725 46 l 725 100 l 556 369 l 725 647 z "},"¬":{"ha":907,"x_min":0,"x_max":0,"o":"m 57 554 l 57 440 l 728 440 l 728 110 l 843 110 l 843 554 z "},"­":{"ha":617,"x_min":0,"x_max":0,"o":"m 526 289 l 526 418 l 89 418 l 89 289 z "},"®":{"ha":1138,"x_min":0,"x_max":0,"o":"m 567 1036 b 43 513 278 1036 43 801 b 567 -11 43 224 278 -11 b 1090 513 856 -11 1090 224 b 567 1036 1090 801 856 1036 z m 567 97 b 151 513 338 97 151 283 b 567 929 151 742 338 929 b 982 513 796 929 982 742 b 567 97 982 283 796 97 z m 774 343 b 629 507 738 476 678 513 b 775 642 718 518 775 551 b 522 783 775 767 671 783 l 338 783 l 338 760 b 392 704 371 760 392 751 l 392 361 b 338 283 392 310 369 283 l 338 260 l 554 260 l 554 283 b 499 361 522 283 499 310 l 499 494 l 535 494 b 628 422 535 494 604 494 b 792 260 681 261 660 261 l 861 260 l 861 283 b 774 343 840 283 789 286 z m 522 518 l 499 518 l 499 760 l 522 760 b 653 642 594 760 653 760 b 522 518 653 518 594 518 z "},"¯":{"ha":500,"x_min":0,"x_max":0,"o":"m 524 815 l 524 911 l -22 911 l -22 815 z "},"°":{"ha":529,"x_min":0,"x_max":0,"o":"m 260 1024 b 79 843 161 1024 79 943 b 260 665 79 744 161 665 b 440 843 358 665 440 744 b 260 1024 440 943 358 1024 z m 385 843 b 261 719 385 774 329 719 b 135 843 192 719 135 774 b 261 967 135 911 192 967 b 385 843 329 967 385 911 z "},"±":{"ha":844,"x_min":0,"x_max":0,"o":"m 472 525 l 472 743 l 361 743 l 361 525 l 57 525 l 57 413 l 361 413 l 361 194 l 472 194 l 472 413 l 778 413 l 778 525 z m 57 0 l 778 0 l 778 111 l 57 111 z "},"²":{"ha":375,"x_min":0,"x_max":0,"o":"m 288 644 b 231 608 274 619 251 608 l 124 608 b 207 729 124 608 176 688 b 276 874 258 792 276 832 b 168 978 276 931 232 978 b 40 860 168 978 54 979 l 63 856 b 188 738 110 956 279 893 l 43 526 l 279 526 l 311 644 z "},"³":{"ha":383,"x_min":0,"x_max":0,"o":"m 328 674 b 238 779 325 711 297 758 b 172 978 343 882 263 978 b 58 875 172 978 71 978 l 82 872 b 186 901 106 922 156 925 b 131 764 224 872 236 796 l 131 739 b 249 644 229 726 244 667 b 176 539 258 599 232 539 b 121 551 126 539 114 549 b 144 579 135 557 140 567 b 107 639 150 606 133 632 b 49 601 81 644 54 628 b 65 553 44 583 51 563 b 176 517 93 531 131 517 b 328 674 233 517 333 560 z "},"´":{"ha":517,"x_min":0,"x_max":0,"o":"m 121 775 l 172 775 l 511 953 l 356 1001 z "},"µ":{"ha":774,"x_min":0,"x_max":0,"o":"m 676 128 l 676 654 l 438 628 l 438 604 b 503 493 508 596 503 578 l 503 179 b 382 89 474 124 421 89 b 265 204 301 89 265 126 l 265 654 l 15 628 l 15 604 b 93 497 96 593 93 581 l 93 -340 b 133 -367 93 -340 93 -374 l 338 -331 l 338 -307 b 265 -218 279 -301 265 -286 l 265 -12 b 503 138 357 -12 469 58 l 503 15 b 542 -11 503 15 504 -17 l 747 25 l 747 49 b 676 128 689 56 676 61 z "},"¶":{"ha":913,"x_min":0,"x_max":0,"o":"m 807 954 l 807 978 l 596 978 l 596 -368 l 797 -368 l 797 -344 b 693 -140 731 -344 693 -249 l 693 757 b 807 954 693 854 738 954 z m 400 978 l 399 978 b 51 694 232 976 51 924 b 399 417 51 464 210 417 l 399 -140 b 213 -344 399 -321 279 -344 l 213 -368 l 497 -368 l 497 978 z "},"·":{"ha":386,"x_min":0,"x_max":0,"o":"m 275 415 b 192 499 275 461 238 499 b 108 415 146 499 108 461 b 192 332 108 369 146 332 b 275 415 238 332 275 369 z "},"¸":{"ha":386,"x_min":0,"x_max":0,"o":"m 167 -6 l 124 -129 b 260 -225 229 -112 260 -200 b 190 -300 261 -268 235 -300 b 151 -289 151 -300 149 -292 b 163 -269 157 -285 161 -279 b 129 -218 167 -244 153 -224 b 76 -250 106 -212 82 -226 b 92 -293 74 -267 81 -285 b 190 -322 103 -303 139 -322 b 336 -207 236 -322 324 -300 b 163 -87 344 -136 289 -58 l 190 -6 z "},"¹":{"ha":322,"x_min":0,"x_max":0,"o":"m 208 604 l 208 978 l 186 978 l 54 888 l 71 864 b 124 846 71 864 124 897 l 124 604 b 60 551 124 557 88 551 l 60 528 l 264 528 l 264 551 b 208 604 240 551 208 556 z "},"º":{"ha":457,"x_min":0,"x_max":0,"o":"m 228 982 b 47 746 85 982 47 875 b 228 518 47 618 85 518 b 407 746 369 518 407 618 b 228 982 407 875 369 982 z m 228 542 b 149 746 179 542 149 569 b 228 958 149 924 178 958 b 306 746 275 958 306 924 b 228 542 306 569 278 542 z "},"»":{"ha":846,"x_min":0,"x_max":0,"o":"m 400 647 l 571 369 l 400 100 l 400 46 l 721 369 l 400 701 z m 117 647 l 286 369 l 117 100 l 117 46 l 438 369 l 117 701 z "},"¼":{"ha":908,"x_min":0,"x_max":0,"o":"m 167 894 l 167 600 b 101 544 167 547 131 544 l 101 521 l 310 521 l 310 544 b 254 600 286 544 254 544 l 254 1036 l 231 1036 l 96 932 l 111 910 b 167 894 111 910 167 949 z m 810 143 l 810 193 l 735 193 l 735 506 l 697 510 l 461 156 l 461 143 l 629 143 l 629 113 b 568 24 629 26 599 24 l 568 0 l 796 0 l 796 24 b 735 115 765 24 735 25 l 735 143 z m 629 193 l 551 193 b 542 232 538 193 518 193 l 629 363 z m 792 983 l 19 50 l 108 50 l 882 983 z "},"½":{"ha":910,"x_min":0,"x_max":0,"o":"m 828 135 b 757 94 813 107 781 94 l 633 94 b 729 232 633 94 694 185 b 811 396 788 303 811 349 b 688 517 811 461 761 517 b 547 381 688 517 563 517 l 569 374 b 710 242 622 488 814 418 l 546 0 l 814 0 l 851 135 z m 792 983 l 19 50 l 108 50 l 882 983 z m 167 894 l 167 600 b 101 544 167 547 131 544 l 101 521 l 310 521 l 310 544 b 254 600 286 544 254 544 l 254 1036 l 231 1036 l 96 932 l 111 910 b 167 894 111 910 167 949 z "},"¾":{"ha":911,"x_min":0,"x_max":0,"o":"m 792 983 l 19 50 l 108 50 l 882 983 z m 376 693 b 274 813 372 736 340 793 b 200 1036 393 928 303 1036 b 75 921 200 1036 89 1036 l 100 913 b 217 950 126 968 183 974 b 153 796 258 918 272 832 l 153 775 b 286 661 265 761 281 686 b 207 540 294 606 281 540 b 150 557 150 540 143 554 b 169 585 160 561 164 571 b 126 653 175 615 157 644 b 61 610 97 658 67 640 b 79 556 57 590 64 567 b 207 517 111 531 151 517 b 376 693 271 517 376 557 z m 810 143 l 810 193 l 735 193 l 735 506 l 697 510 l 461 156 l 461 143 l 629 143 l 629 113 b 568 24 629 26 599 24 l 568 0 l 796 0 l 796 24 b 735 115 765 24 735 25 l 735 143 z m 629 193 l 551 193 b 542 232 538 193 518 193 l 629 363 z "},"¿":{"ha":840,"x_min":0,"x_max":0,"o":"m 456 425 b 572 542 521 425 572 476 b 456 660 572 607 521 660 b 338 542 390 660 338 607 b 456 425 338 476 390 425 z m 140 -149 b 613 -329 150 -325 390 -428 b 729 -206 681 -299 721 -242 b 719 -110 738 -175 740 -139 b 588 -83 689 -67 629 -54 b 565 -215 547 -114 536 -172 b 624 -253 581 -236 600 -250 b 606 -307 636 -254 649 -289 b 342 -143 490 -351 354 -303 b 417 106 329 -14 351 50 b 490 326 506 179 499 272 l 454 321 b 340 157 461 238 415 176 b 140 -149 260 136 132 54 z "},"À":{"ha":983,"x_min":0,"x_max":0,"o":"m 847 125 b 494 978 847 125 835 161 l 471 978 l 231 344 b 24 24 94 15 60 26 l 24 0 l 365 0 l 365 24 b 232 274 146 13 232 274 l 561 274 l 603 172 b 567 24 603 172 675 24 l 567 0 l 964 0 l 964 24 b 847 125 928 26 894 14 z m 236 297 l 388 703 l 553 297 z m 439 1247 l 283 1199 l 622 1021 l 674 1021 z "},"Á":{"ha":983,"x_min":0,"x_max":0,"o":""},"Â":{"ha":983,"x_min":0,"x_max":0,"o":"m 847 125 b 494 978 847 125 835 161 l 471 978 l 231 344 b 24 24 94 15 60 26 l 24 0 l 365 0 l 365 24 b 232 274 146 13 232 274 l 561 274 l 603 172 b 567 24 603 172 675 24 l 567 0 l 964 0 l 964 24 b 847 125 928 26 894 14 z m 236 297 l 388 703 l 553 297 z m 318 1021 l 483 1128 l 647 1021 l 699 1021 l 483 1281 l 268 1021 z "},"Ã":{"ha":983,"x_min":0,"x_max":0,"o":"m 549 1042 b 815 1228 549 1042 715 986 l 794 1239 b 585 1168 758 1164 633 1151 l 419 1229 b 153 1043 419 1229 251 1285 l 174 1035 b 382 1101 210 1111 335 1118 z m 847 125 b 494 978 847 125 835 161 l 471 978 l 231 344 b 24 24 94 15 60 26 l 24 0 l 365 0 l 365 24 b 232 274 146 13 232 274 l 561 274 l 603 172 b 567 24 603 172 675 24 l 567 0 l 964 0 l 964 24 b 847 125 928 26 894 14 z m 236 297 l 388 703 l 553 297 z "},"Ä":{"ha":983,"x_min":0,"x_max":0,"o":"m 356 1075 b 438 1157 401 1075 438 1111 b 356 1239 438 1201 401 1239 b 274 1157 311 1239 274 1201 b 356 1075 274 1111 311 1075 z m 617 1075 b 700 1157 663 1075 700 1111 b 617 1239 700 1201 663 1239 b 535 1157 572 1239 535 1201 b 617 1075 535 1111 572 1075 z m 847 125 b 494 978 847 125 835 161 l 471 978 l 231 344 b 24 24 94 15 60 26 l 24 0 l 365 0 l 365 24 b 232 274 146 13 232 274 l 561 274 l 603 172 b 567 24 603 172 675 24 l 567 0 l 964 0 l 964 24 b 847 125 928 26 894 14 z m 236 297 l 388 703 l 553 297 z "},"Å":{"ha":983,"x_min":0,"x_max":0,"o":"m 486 1076 b 633 1222 567 1076 633 1142 b 486 1369 633 1303 567 1369 b 340 1222 406 1369 340 1303 b 486 1076 340 1142 406 1076 z m 486 1306 b 569 1222 533 1306 569 1268 b 486 1139 569 1176 533 1139 b 403 1222 440 1139 403 1176 b 486 1306 403 1268 440 1306 z m 847 125 b 494 978 847 125 835 161 l 471 978 l 231 344 b 24 24 94 15 60 26 l 24 0 l 365 0 l 365 24 b 232 274 146 13 232 274 l 561 274 l 603 172 b 567 24 603 172 675 24 l 567 0 l 964 0 l 964 24 b 847 125 928 26 894 14 z m 236 297 l 388 703 l 553 297 z "},"Æ":{"ha":1383,"x_min":0,"x_max":0,"o":"m 622 360 l 335 360 l 617 858 b 622 786 621 838 622 814 z m 1274 300 b 875 24 1219 24 875 24 l 825 24 l 825 479 l 875 479 b 1072 336 875 479 1057 483 l 1096 336 l 1096 647 l 1072 647 b 875 503 1057 499 875 503 l 825 503 l 825 954 l 875 954 b 1254 713 875 954 1224 954 l 1278 713 l 1278 978 l 494 978 l 494 954 b 606 893 536 954 582 950 l 318 383 b 17 24 131 57 53 26 l 17 0 l 374 0 l 374 24 b 325 336 318 24 151 13 l 622 336 l 622 189 b 517 24 622 44 576 24 l 517 0 l 1297 0 l 1297 300 z "},"Ç":{"ha":957,"x_min":0,"x_max":0,"o":"m 897 74 l 878 292 l 854 292 b 538 11 818 140 704 11 b 306 489 388 11 306 107 b 538 967 306 869 383 967 b 854 688 696 967 776 875 l 878 688 l 897 906 b 538 990 810 976 681 990 b 56 489 240 990 56 765 b 514 -12 56 219 231 -1 l 472 -132 b 608 -228 578 -115 608 -203 b 539 -303 610 -271 583 -303 b 500 -292 500 -303 497 -294 b 511 -272 506 -287 510 -282 b 478 -221 515 -247 501 -226 b 425 -253 454 -215 431 -229 b 440 -296 422 -269 429 -287 b 539 -325 451 -306 488 -325 b 685 -210 585 -325 672 -303 b 511 -90 693 -139 638 -61 l 538 -12 b 897 74 686 -12 794 6 z "},"È":{"ha":900,"x_min":0,"x_max":0,"o":"m 796 303 b 369 24 738 24 369 24 l 319 24 l 319 482 l 369 482 b 594 338 369 482 581 482 l 618 338 l 618 650 l 594 650 b 369 506 581 506 369 506 l 319 506 l 319 954 l 369 954 b 778 714 369 954 746 954 l 801 714 l 801 978 l 38 978 l 38 954 b 118 786 99 954 118 872 l 118 190 b 38 24 118 96 96 24 l 38 0 l 819 0 l 819 303 z m 382 1247 l 226 1199 l 565 1021 l 617 1021 z "},"É":{"ha":900,"x_min":0,"x_max":0,"o":"m 796 303 b 369 24 738 24 369 24 l 319 24 l 319 482 l 369 482 b 594 338 369 482 581 482 l 618 338 l 618 650 l 594 650 b 369 506 581 506 369 506 l 319 506 l 319 954 l 369 954 b 778 714 369 954 746 954 l 801 714 l 801 978 l 38 978 l 38 954 b 118 786 99 954 118 872 l 118 190 b 38 24 118 96 96 24 l 38 0 l 819 0 l 819 303 z m 226 1021 l 278 1021 l 617 1199 l 461 1247 z "},"Ê":{"ha":900,"x_min":0,"x_max":0,"o":"m 796 303 b 369 24 738 24 369 24 l 319 24 l 319 482 l 369 482 b 594 338 369 482 581 482 l 618 338 l 618 650 l 594 650 b 369 506 581 506 369 506 l 319 506 l 319 954 l 369 954 b 778 714 369 954 746 954 l 801 714 l 801 978 l 38 978 l 38 954 b 118 786 99 954 118 872 l 118 190 b 38 24 118 96 96 24 l 38 0 l 819 0 l 819 303 z m 263 1021 l 428 1128 l 592 1021 l 643 1021 l 428 1281 l 213 1021 z "},"Ë":{"ha":900,"x_min":0,"x_max":0,"o":"m 292 1075 b 374 1157 338 1075 374 1111 b 292 1239 374 1201 338 1239 b 210 1157 247 1239 210 1201 b 292 1075 210 1111 247 1075 z m 553 1075 b 636 1157 599 1075 636 1111 b 553 1239 636 1201 599 1239 b 471 1157 508 1239 471 1201 b 553 1075 471 1111 508 1075 z m 796 303 b 369 24 738 24 369 24 l 319 24 l 319 482 l 369 482 b 594 338 369 482 581 482 l 618 338 l 618 650 l 594 650 b 369 506 581 506 369 506 l 319 506 l 319 954 l 369 954 b 778 714 369 954 746 954 l 801 714 l 801 978 l 38 978 l 38 954 b 118 786 99 954 118 872 l 118 190 b 38 24 118 96 96 24 l 38 0 l 819 0 l 819 303 z "},"Ì":{"ha":539,"x_min":0,"x_max":0,"o":"m 51 978 l 51 954 b 169 831 113 954 169 917 l 169 169 b 51 24 169 74 110 24 l 51 0 l 489 0 l 489 24 b 371 169 431 24 371 74 l 371 831 b 489 954 371 917 429 954 l 489 978 z m 217 1247 l 61 1199 l 400 1021 l 451 1021 z "},"Í":{"ha":539,"x_min":0,"x_max":0,"o":"m 489 978 l 489 954 b 371 831 429 954 371 917 l 371 169 b 489 24 371 74 431 24 l 489 0 l 51 0 l 51 24 b 169 169 110 24 169 74 l 169 831 b 51 954 169 917 113 954 l 51 978 z m 74 1021 l 125 1021 l 464 1199 l 308 1247 z "},"Î":{"ha":539,"x_min":0,"x_max":0,"o":"m 51 978 l 51 954 b 169 831 113 954 169 917 l 169 169 b 51 24 169 74 110 24 l 51 0 l 489 0 l 489 24 b 371 169 431 24 371 74 l 371 831 b 489 954 371 917 429 954 l 489 978 z m 106 1021 l 271 1128 l 435 1021 l 486 1021 l 271 1281 l 56 1021 z "},"Ï":{"ha":539,"x_min":0,"x_max":0,"o":"m 140 1075 b 222 1157 186 1075 222 1111 b 140 1239 222 1201 186 1239 b 58 1157 96 1239 58 1201 b 140 1075 58 1111 96 1075 z m 401 1075 b 485 1157 447 1075 485 1111 b 401 1239 485 1201 447 1239 b 319 1157 357 1239 319 1201 b 401 1075 319 1111 357 1075 z m 489 978 l 489 954 b 371 831 429 954 371 917 l 371 169 b 489 24 371 74 431 24 l 489 0 l 51 0 l 51 24 b 169 169 110 24 169 74 l 169 831 b 51 954 169 917 113 954 l 51 978 z "},"Ð":{"ha":1061,"x_min":0,"x_max":0,"o":"m 47 476 l 150 476 l 150 190 b 46 24 150 96 106 24 l 46 0 l 413 0 b 994 485 689 0 994 79 b 413 978 994 892 689 978 l 46 978 l 46 954 b 150 786 107 954 150 872 l 150 501 l 47 501 z m 413 24 l 351 24 l 351 476 l 554 476 l 554 501 l 351 501 l 351 954 l 413 954 b 751 485 549 954 751 918 b 413 24 751 53 549 24 z "},"Ñ":{"ha":1167,"x_min":0,"x_max":0,"o":"m 650 1042 b 917 1228 650 1042 817 986 l 896 1239 b 686 1168 860 1164 735 1151 l 521 1229 b 254 1043 521 1229 353 1285 l 275 1035 b 483 1101 311 1111 436 1118 z m 722 978 l 722 954 b 913 625 914 956 913 625 l 913 288 l 353 978 l 13 978 l 13 954 b 178 856 49 951 89 967 l 232 788 l 232 354 b 24 24 232 354 233 24 l 24 0 l 446 0 l 446 24 b 256 354 254 24 256 354 l 256 763 l 863 0 l 936 0 l 936 625 b 1143 954 936 625 933 956 l 1143 978 z "},"Ò":{"ha":1078,"x_min":0,"x_max":0,"o":"m 536 990 b 57 482 231 990 57 757 b 536 -12 57 206 231 -12 b 1015 482 842 -12 1015 206 b 536 990 1015 757 842 990 z m 536 11 b 294 482 371 11 294 100 b 536 967 294 863 371 967 b 775 482 700 967 775 863 b 536 11 775 100 700 11 z m 489 1247 l 333 1199 l 672 1021 l 724 1021 z "},"Ó":{"ha":1078,"x_min":0,"x_max":0,"o":""},"Ô":{"ha":1078,"x_min":0,"x_max":0,"o":"m 536 990 b 57 482 231 990 57 757 b 536 -12 57 206 231 -12 b 1015 482 842 -12 1015 206 b 536 990 1015 757 842 990 z m 536 11 b 294 482 371 11 294 100 b 536 967 294 863 371 967 b 775 482 700 967 775 863 b 536 11 775 100 700 11 z m 376 1021 l 542 1128 l 706 1021 l 757 1021 l 542 1281 l 326 1021 z "},"Õ":{"ha":1078,"x_min":0,"x_max":0,"o":"m 607 1042 b 874 1228 607 1042 774 986 l 853 1239 b 643 1168 817 1164 692 1151 l 478 1229 b 211 1043 478 1229 310 1285 l 232 1035 b 440 1101 268 1111 393 1118 z m 536 990 b 57 482 231 990 57 757 b 536 -12 57 206 231 -12 b 1015 482 842 -12 1015 206 b 536 990 1015 757 842 990 z m 536 11 b 294 482 371 11 294 100 b 536 967 294 863 371 967 b 775 482 700 967 775 863 b 536 11 775 100 700 11 z "},"Ö":{"ha":1078,"x_min":0,"x_max":0,"o":"m 407 1075 b 489 1157 453 1075 489 1111 b 407 1239 489 1201 453 1239 b 325 1157 363 1239 325 1201 b 407 1075 325 1111 363 1075 z m 668 1075 b 751 1157 714 1075 751 1111 b 668 1239 751 1201 714 1239 b 586 1157 624 1239 586 1201 b 668 1075 586 1111 624 1075 z m 536 990 b 57 482 231 990 57 757 b 536 -12 57 206 231 -12 b 1015 482 842 -12 1015 206 b 536 990 1015 757 842 990 z m 536 11 b 294 482 371 11 294 100 b 536 967 294 863 371 967 b 775 482 700 967 775 863 b 536 11 775 100 700 11 z "},"×":{"ha":833,"x_min":0,"x_max":0,"o":"m 750 600 l 664 688 l 417 440 l 169 688 l 82 600 l 329 353 l 82 106 l 169 18 l 417 265 l 664 18 l 750 106 l 503 353 z "},"Ø":{"ha":1079,"x_min":0,"x_max":0,"o":"m 536 990 b 57 482 231 990 57 757 b 263 63 57 303 129 150 l 194 -49 l 224 -49 l 283 50 b 536 -12 353 10 438 -12 b 1015 482 842 -12 1015 206 b 807 913 1015 660 942 821 l 882 1035 l 853 1035 l 786 925 b 536 990 717 967 633 990 z m 294 482 b 536 967 294 863 371 967 b 732 835 629 967 693 933 l 326 168 b 294 482 304 239 294 340 z m 536 11 b 336 138 440 11 375 40 l 742 804 b 775 482 764 729 775 625 b 536 11 775 100 700 11 z "},"Ù":{"ha":1044,"x_min":0,"x_max":0,"o":"m 472 1247 l 317 1199 l 656 1021 l 707 1021 z m 1022 978 l 603 978 l 603 954 b 792 746 794 956 792 746 l 792 333 b 563 71 792 158 668 71 b 329 332 431 71 329 168 l 329 832 b 458 954 329 932 399 954 l 458 978 l 17 978 l 17 954 b 128 832 78 954 128 917 l 128 342 b 472 -12 128 115 283 -12 b 815 333 594 -12 815 36 l 815 746 b 1022 954 815 746 813 956 z "},"Ú":{"ha":1044,"x_min":0,"x_max":0,"o":"m 1022 978 l 603 978 l 603 954 b 792 746 794 956 792 746 l 792 333 b 563 71 792 158 668 71 b 329 332 431 71 329 168 l 329 832 b 458 954 329 932 399 954 l 458 978 l 17 978 l 17 954 b 128 832 78 954 128 917 l 128 342 b 472 -12 128 115 283 -12 b 815 333 594 -12 815 36 l 815 746 b 1022 954 815 746 813 956 z m 342 1021 l 393 1021 l 732 1199 l 576 1247 z "},"Û":{"ha":1044,"x_min":0,"x_max":0,"o":"m 363 1021 l 528 1128 l 692 1021 l 743 1021 l 528 1281 l 313 1021 z m 1022 978 l 603 978 l 603 954 b 792 746 794 956 792 746 l 792 333 b 563 71 792 158 668 71 b 329 332 431 71 329 168 l 329 832 b 458 954 329 932 399 954 l 458 978 l 17 978 l 17 954 b 128 832 78 954 128 917 l 128 342 b 472 -12 128 115 283 -12 b 815 333 594 -12 815 36 l 815 746 b 1022 954 815 746 813 956 z "},"Ü":{"ha":1044,"x_min":0,"x_max":0,"o":"m 392 1075 b 474 1157 438 1075 474 1111 b 392 1239 474 1201 438 1239 b 310 1157 347 1239 310 1201 b 392 1075 310 1111 347 1075 z m 653 1075 b 736 1157 699 1075 736 1111 b 653 1239 736 1201 699 1239 b 571 1157 608 1239 571 1201 b 653 1075 571 1111 608 1075 z m 1022 978 l 603 978 l 603 954 b 792 746 794 956 792 746 l 792 333 b 563 71 792 158 668 71 b 329 332 431 71 329 168 l 329 832 b 458 954 329 932 399 954 l 458 978 l 17 978 l 17 954 b 128 832 78 954 128 917 l 128 342 b 472 -12 128 115 283 -12 b 815 333 594 -12 815 36 l 815 746 b 1022 954 815 746 813 956 z "},"Ý":{"ha":1071,"x_min":0,"x_max":0,"o":"m 636 978 l 636 954 b 713 671 836 954 713 671 l 619 478 l 424 797 b 456 956 329 957 426 956 l 456 978 l 13 978 l 13 956 b 161 846 47 956 100 951 b 432 383 161 846 228 744 l 432 168 b 314 24 432 74 372 24 l 314 0 l 751 0 l 751 24 b 633 168 693 24 633 74 l 633 454 l 725 647 b 1053 954 881 951 1017 954 l 1053 978 z m 382 1021 l 433 1021 l 772 1199 l 617 1247 z "},"Þ":{"ha":924,"x_min":0,"x_max":0,"o":"m 358 776 l 408 776 b 653 519 544 776 653 767 b 408 267 653 274 544 267 l 358 267 z m 408 243 b 881 519 685 243 881 288 b 408 800 881 751 685 800 l 358 800 l 358 831 b 475 954 358 917 415 954 l 475 978 l 38 978 l 38 954 b 156 831 99 954 156 917 l 156 168 b 38 24 156 74 96 24 l 38 0 l 475 0 l 475 24 b 358 168 417 24 358 74 l 358 243 z "},"ß":{"ha":867,"x_min":0,"x_max":0,"o":"m 515 583 b 696 800 543 583 696 624 b 393 1038 696 1014 532 1038 b 94 678 190 1038 94 890 l 94 169 b 39 24 94 99 92 40 l 39 0 l 267 0 l 267 711 b 393 1014 267 711 263 1014 b 539 808 413 1014 539 1025 b 396 590 539 624 469 590 l 396 567 b 639 299 488 567 639 469 b 501 11 639 178 636 11 b 453 32 450 11 442 26 b 493 81 471 40 486 58 b 438 182 506 124 481 169 b 335 126 393 196 347 171 b 357 36 326 96 336 58 b 501 -12 375 14 419 -12 b 835 282 754 -12 835 128 b 515 583 835 508 604 583 z "},"à":{"ha":731,"x_min":0,"x_max":0,"o":"m 417 143 b 325 72 404 110 372 72 b 235 164 235 72 235 164 b 417 331 235 235 281 300 b 417 143 417 331 417 146 z m 658 72 b 592 169 590 72 592 169 l 592 376 b 360 654 592 540 542 654 b 225 626 360 654 288 660 b 117 525 149 586 131 549 b 121 442 103 501 104 468 b 231 421 146 406 194 397 b 251 531 267 446 276 494 b 200 561 239 549 221 558 b 240 608 190 563 196 586 b 417 442 336 658 417 586 l 417 356 b 57 129 174 294 57 281 b 217 -12 57 -12 217 -12 b 418 100 315 -12 397 39 b 557 -12 433 -12 557 -12 b 719 86 644 -12 708 42 l 696 96 b 658 72 688 72 658 72 z m 322 978 l 167 929 l 506 751 l 557 751 z "},"á":{"ha":731,"x_min":0,"x_max":0,"o":"m 417 143 b 325 72 404 110 372 72 b 235 164 235 72 235 164 b 417 331 235 235 281 300 b 417 143 417 331 417 146 z m 658 72 b 592 169 590 72 592 169 l 592 376 b 360 654 592 540 542 654 b 225 626 360 654 288 660 b 117 525 149 586 131 549 b 121 442 103 501 104 468 b 231 421 146 406 194 397 b 251 531 267 446 276 494 b 200 561 239 549 221 558 b 240 608 190 563 196 586 b 417 442 336 658 417 586 l 417 356 b 57 129 174 294 57 281 b 217 -12 57 -12 217 -12 b 418 100 315 -12 397 39 b 557 -12 433 -12 557 -12 b 719 86 644 -12 708 42 l 696 96 b 658 72 688 72 658 72 z m 196 751 l 247 751 l 586 929 l 431 978 z "},"â":{"ha":731,"x_min":0,"x_max":0,"o":"m 417 143 b 325 72 404 110 372 72 b 235 164 235 72 235 164 b 417 331 235 235 281 300 b 417 143 417 331 417 146 z m 658 72 b 592 169 590 72 592 169 l 592 376 b 360 654 592 540 542 654 b 225 626 360 654 288 660 b 117 525 149 586 131 549 b 121 442 103 501 104 468 b 231 421 146 406 194 397 b 251 531 267 446 276 494 b 200 561 239 549 221 558 b 240 608 190 563 196 586 b 417 442 336 658 417 586 l 417 356 b 57 129 174 294 57 281 b 217 -12 57 -12 217 -12 b 418 100 315 -12 397 39 b 557 -12 433 -12 557 -12 b 719 86 644 -12 708 42 l 696 96 b 658 72 688 72 658 72 z m 217 718 l 382 825 l 546 718 l 597 718 l 382 978 l 167 718 z "},"ã":{"ha":731,"x_min":0,"x_max":0,"o":"m 439 760 b 706 946 439 760 606 704 l 685 957 b 475 886 649 882 524 869 l 310 947 b 43 761 310 947 142 1003 l 64 753 b 272 819 100 829 225 836 z m 417 143 b 325 72 404 110 372 72 b 235 164 235 72 235 164 b 417 331 235 235 281 300 b 417 143 417 331 417 146 z m 658 72 b 592 169 590 72 592 169 l 592 376 b 360 654 592 540 542 654 b 225 626 360 654 288 660 b 117 525 149 586 131 549 b 121 442 103 501 104 468 b 231 421 146 406 194 397 b 251 531 267 446 276 494 b 200 561 239 549 221 558 b 240 608 190 563 196 586 b 417 442 336 658 417 586 l 417 356 b 57 129 174 294 57 281 b 217 -12 57 -12 217 -12 b 418 100 315 -12 397 39 b 557 -12 433 -12 557 -12 b 719 86 644 -12 708 42 l 696 96 b 658 72 688 72 658 72 z "},"ä":{"ha":731,"x_min":0,"x_max":0,"o":"m 328 856 b 246 938 328 900 292 938 b 164 856 200 938 164 900 b 246 772 164 810 200 772 b 328 856 292 772 328 810 z m 589 856 b 507 938 589 900 553 938 b 425 856 461 938 425 900 b 507 772 425 810 461 772 b 589 856 553 772 589 810 z m 417 143 b 325 72 404 110 372 72 b 235 164 235 72 235 164 b 417 331 235 235 281 300 b 417 143 417 331 417 146 z m 658 72 b 592 169 590 72 592 169 l 592 376 b 360 654 592 540 542 654 b 225 626 360 654 288 660 b 117 525 149 586 131 549 b 121 442 103 501 104 468 b 231 421 146 406 194 397 b 251 531 267 446 276 494 b 200 561 239 549 221 558 b 240 608 190 563 196 586 b 417 442 336 658 417 586 l 417 356 b 57 129 174 294 57 281 b 217 -12 57 -12 217 -12 b 418 100 315 -12 397 39 b 557 -12 433 -12 557 -12 b 719 86 644 -12 708 42 l 696 96 b 658 72 688 72 658 72 z "},"å":{"ha":731,"x_min":0,"x_max":0,"o":"m 369 740 b 515 886 450 740 515 806 b 369 1032 515 967 450 1032 b 224 886 289 1032 224 967 b 369 740 224 806 289 740 z m 369 969 b 453 886 415 969 453 932 b 369 803 453 840 415 803 b 286 886 324 803 286 840 b 369 969 286 932 324 969 z m 417 143 b 325 72 404 110 372 72 b 235 164 235 72 235 164 b 417 331 235 235 281 300 b 417 143 417 331 417 146 z m 658 72 b 592 169 590 72 592 169 l 592 376 b 360 654 592 540 542 654 b 225 626 360 654 288 660 b 117 525 149 586 131 549 b 121 442 103 501 104 468 b 231 421 146 406 194 397 b 251 531 267 446 276 494 b 200 561 239 549 221 558 b 240 608 190 563 196 586 b 417 442 336 658 417 586 l 417 356 b 57 129 174 294 57 281 b 217 -12 57 -12 217 -12 b 418 100 315 -12 397 39 b 557 -12 433 -12 557 -12 b 719 86 644 -12 708 42 l 696 96 b 658 72 688 72 658 72 z "},"æ":{"ha":1026,"x_min":0,"x_max":0,"o":"m 703 631 b 813 357 783 631 813 532 l 576 357 b 703 631 576 490 617 631 z m 319 72 b 235 164 229 72 235 164 b 404 335 235 282 369 325 b 406 274 404 335 403 308 b 435 157 408 239 417 194 b 319 72 424 131 386 72 z m 731 106 b 576 333 638 126 585 197 l 968 333 b 703 654 968 550 904 654 b 510 561 624 654 567 617 b 344 654 478 617 424 654 b 219 625 344 654 282 658 b 113 525 143 585 126 549 b 117 442 99 501 100 468 b 226 421 142 406 190 397 b 247 531 263 446 272 494 b 199 564 235 549 219 561 b 233 607 189 565 189 585 b 404 442 329 657 404 586 l 404 360 b 57 129 164 296 57 274 b 217 -12 57 -12 217 -12 b 451 131 343 -12 433 58 b 693 -12 488 61 579 -12 b 947 169 876 -12 925 97 l 922 182 b 731 106 889 131 806 89 z "},"ç":{"ha":693,"x_min":0,"x_max":0,"o":"m 625 179 b 414 111 593 133 483 96 b 238 349 318 132 238 199 b 422 631 238 588 372 631 b 496 601 478 631 508 607 b 453 546 475 590 458 572 b 518 433 439 497 468 446 b 632 500 568 419 618 451 b 604 593 642 533 628 572 b 422 654 581 614 521 654 b 63 324 185 654 63 483 b 325 -8 63 174 167 15 l 283 -129 b 419 -225 389 -112 419 -200 b 350 -300 421 -268 394 -300 b 311 -289 311 -300 308 -292 b 322 -269 317 -285 321 -279 b 289 -218 326 -244 313 -224 b 236 -250 265 -212 242 -226 b 251 -293 233 -267 240 -285 b 350 -322 263 -303 299 -322 b 496 -207 396 -322 483 -300 b 322 -87 504 -136 449 -58 l 347 -11 b 368 -12 358 -12 365 -12 b 644 167 542 -12 625 96 z "},"è":{"ha":728,"x_min":0,"x_max":0,"o":"m 229 357 b 368 631 229 490 286 631 b 501 357 444 631 501 532 z m 375 654 b 50 318 183 654 50 514 b 357 -12 50 156 175 -12 b 647 169 543 -12 625 97 l 624 182 b 403 106 589 117 478 89 b 229 333 310 126 240 197 l 671 333 b 375 654 671 550 576 654 z m 317 978 l 161 929 l 500 751 l 551 751 z "},"é":{"ha":728,"x_min":0,"x_max":0,"o":"m 229 357 b 368 631 229 490 286 631 b 501 357 444 631 501 532 z m 375 654 b 50 318 183 654 50 514 b 357 -12 50 156 175 -12 b 647 169 543 -12 625 97 l 624 182 b 403 106 589 117 478 89 b 229 333 310 126 240 197 l 671 333 b 375 654 671 550 576 654 z m 176 751 l 228 751 l 567 929 l 411 978 z "},"ê":{"ha":728,"x_min":0,"x_max":0,"o":"m 229 357 b 368 631 229 490 286 631 b 501 357 444 631 501 532 z m 375 654 b 50 318 183 654 50 514 b 357 -12 50 156 175 -12 b 647 169 543 -12 625 97 l 624 182 b 403 106 589 117 478 89 b 229 333 310 126 240 197 l 671 333 b 375 654 671 550 576 654 z m 192 718 l 357 825 l 521 718 l 572 718 l 357 978 l 142 718 z "},"ë":{"ha":728,"x_min":0,"x_max":0,"o":"m 314 856 b 232 938 314 900 278 938 b 150 856 186 938 150 900 b 232 772 150 810 186 772 b 314 856 278 772 314 810 z m 575 856 b 493 938 575 900 539 938 b 411 856 447 938 411 900 b 493 772 411 810 447 772 b 575 856 539 772 575 810 z m 229 357 b 368 631 229 490 286 631 b 501 357 444 631 501 532 z m 375 654 b 50 318 183 654 50 514 b 357 -12 50 156 175 -12 b 647 169 543 -12 625 97 l 624 182 b 403 106 589 117 478 89 b 229 333 310 126 240 197 l 671 333 b 375 654 671 550 576 654 z "},"ì":{"ha":392,"x_min":0,"x_max":0,"o":"m 282 169 l 282 654 l 39 599 l 39 575 b 110 478 96 544 110 525 l 110 169 b 54 24 110 99 107 40 l 54 0 l 339 0 l 339 24 b 282 169 289 38 282 92 z m 150 978 l -6 929 l 333 751 l 385 751 z "},"í":{"ha":392,"x_min":0,"x_max":0,"o":"m 282 169 l 282 654 l 39 599 l 39 575 b 110 478 96 544 110 525 l 110 169 b 54 24 110 99 107 40 l 54 0 l 339 0 l 339 24 b 282 169 289 38 282 92 z m 13 751 l 64 751 l 403 929 l 247 978 z "},"î":{"ha":392,"x_min":0,"x_max":0,"o":"m 282 169 l 282 654 l 39 599 l 39 575 b 110 478 96 544 110 525 l 110 169 b 54 24 110 99 107 40 l 54 0 l 339 0 l 339 24 b 282 169 289 38 282 92 z m 47 718 l 213 825 l 376 718 l 428 718 l 213 978 l -3 718 z "},"ï":{"ha":392,"x_min":0,"x_max":0,"o":"m 142 856 b 60 938 142 900 106 938 b -22 856 14 938 -22 900 b 60 772 -22 810 14 772 b 142 856 106 772 142 810 z m 403 856 b 321 938 403 900 367 938 b 239 856 275 938 239 900 b 321 772 239 810 275 772 b 403 856 367 772 403 810 z m 282 169 l 282 654 l 39 599 l 39 575 b 110 478 96 544 110 525 l 110 169 b 54 24 110 99 107 40 l 54 0 l 339 0 l 339 24 b 282 169 289 38 282 92 z "},"ð":{"ha":804,"x_min":0,"x_max":0,"o":"m 532 461 b 399 11 532 138 501 11 b 257 275 303 11 257 60 b 388 565 257 456 310 565 b 532 464 428 565 488 543 b 532 461 532 463 532 463 z m 751 442 b 579 892 751 653 682 804 l 719 964 l 699 983 l 556 910 b 254 990 478 960 367 990 l 254 967 b 463 863 331 967 413 940 l 221 738 l 239 718 l 475 838 b 532 511 510 764 529 656 b 319 607 482 594 383 607 b 53 303 122 607 53 456 b 399 -12 53 88 211 -12 b 751 442 632 -12 751 165 z "},"ñ":{"ha":749,"x_min":0,"x_max":0,"o":"m 433 760 b 700 946 433 760 600 704 l 679 957 b 469 886 643 882 518 869 l 304 947 b 38 761 304 947 136 1003 l 58 753 b 267 819 94 829 219 836 z m 661 169 l 661 443 b 486 654 661 611 594 654 b 257 506 399 654 289 590 l 257 654 l 14 599 l 14 575 b 83 481 71 544 83 529 l 83 167 b 29 24 83 96 82 39 l 29 0 l 314 0 l 314 24 b 257 167 265 38 257 90 l 257 440 b 375 554 257 496 321 554 b 488 439 444 554 488 506 l 488 169 b 432 24 488 99 485 39 l 432 0 l 718 0 l 718 24 b 661 169 668 36 661 93 z "},"ò":{"ha":771,"x_min":0,"x_max":0,"o":"m 388 654 b 57 321 176 654 57 504 b 388 -12 57 139 176 -12 b 718 321 600 -12 718 139 b 388 654 718 504 600 654 z m 388 11 b 261 321 288 11 261 69 b 388 631 261 572 288 631 b 513 321 488 631 513 572 b 388 11 513 69 488 11 z m 336 978 l 181 929 l 519 751 l 571 751 z "},"ó":{"ha":771,"x_min":0,"x_max":0,"o":"m 388 654 b 57 321 176 654 57 504 b 388 -12 57 139 176 -12 b 718 321 600 -12 718 139 b 388 654 718 504 600 654 z m 388 11 b 261 321 288 11 261 69 b 388 631 261 572 288 631 b 513 321 488 631 513 572 b 388 11 513 69 488 11 z m 207 751 l 258 751 l 597 929 l 442 978 z "},"ô":{"ha":771,"x_min":0,"x_max":0,"o":"m 388 654 b 57 321 176 654 57 504 b 388 -12 57 139 176 -12 b 718 321 600 -12 718 139 b 388 654 718 504 600 654 z m 388 11 b 261 321 288 11 261 69 b 388 631 261 572 288 631 b 513 321 488 631 513 572 b 388 11 513 69 488 11 z m 229 718 l 394 825 l 558 718 l 610 718 l 394 978 l 179 718 z "},"õ":{"ha":771,"x_min":0,"x_max":0,"o":"m 446 760 b 713 946 446 760 613 704 l 692 957 b 482 886 656 882 531 869 l 317 947 b 50 761 317 947 149 1003 l 71 753 b 279 819 107 829 232 836 z m 388 654 b 57 321 176 654 57 504 b 388 -12 57 139 176 -12 b 718 321 600 -12 718 139 b 388 654 718 504 600 654 z m 388 11 b 261 321 288 11 261 69 b 388 631 261 572 288 631 b 513 321 488 631 513 572 b 388 11 513 69 488 11 z "},"ö":{"ha":771,"x_min":0,"x_max":0,"o":"m 339 856 b 257 938 339 900 303 938 b 175 856 211 938 175 900 b 257 772 175 810 211 772 b 339 856 303 772 339 810 z m 600 856 b 518 938 600 900 564 938 b 436 856 472 938 436 900 b 518 772 436 810 472 772 b 600 856 564 772 600 810 z m 388 654 b 57 321 176 654 57 504 b 388 -12 57 139 176 -12 b 718 321 600 -12 718 139 b 388 654 718 504 600 654 z m 388 11 b 261 321 288 11 261 69 b 388 631 261 572 288 631 b 513 321 488 631 513 572 b 388 11 513 69 488 11 z "},"÷":{"ha":868,"x_min":0,"x_max":0,"o":"m 807 319 l 807 449 l 63 449 l 63 319 z m 528 685 b 433 779 528 736 486 779 b 340 685 382 779 340 736 b 433 590 340 633 382 590 b 528 685 486 590 528 633 z m 528 83 b 433 176 528 135 486 176 b 340 83 382 176 340 135 b 433 -11 340 31 382 -11 b 528 83 486 -11 528 31 z "},"ø":{"ha":774,"x_min":0,"x_max":0,"o":"m 121 -93 l 144 -93 l 218 26 b 388 -12 265 1 322 -12 b 718 321 600 -12 718 139 b 574 604 718 440 668 544 l 651 729 l 628 729 l 557 614 b 388 654 510 639 453 654 b 57 321 176 654 57 504 b 201 38 57 201 107 96 z m 261 321 b 388 631 261 572 288 631 b 500 522 451 631 485 606 l 268 147 b 261 321 263 190 261 247 z m 388 11 b 274 117 324 11 290 35 l 504 492 b 513 321 510 449 513 392 b 388 11 513 69 488 11 z "},"ù":{"ha":776,"x_min":0,"x_max":0,"o":"m 685 128 l 685 654 l 446 628 l 446 604 b 511 493 517 596 511 578 l 511 179 b 390 89 482 124 429 89 b 274 204 310 89 274 126 l 274 654 l 24 628 l 24 604 b 101 497 104 593 101 581 l 101 200 b 276 -12 101 33 167 -12 b 511 138 363 -12 478 58 l 511 15 b 550 -11 511 15 513 -17 l 756 25 l 756 49 b 685 128 697 56 685 61 z m 336 978 l 181 929 l 519 751 l 571 751 z "},"ú":{"ha":776,"x_min":0,"x_max":0,"o":"m 685 128 l 685 654 l 446 628 l 446 604 b 511 493 517 596 511 578 l 511 179 b 390 89 482 124 429 89 b 274 204 310 89 274 126 l 274 654 l 24 628 l 24 604 b 101 497 104 593 101 581 l 101 200 b 276 -12 101 33 167 -12 b 511 138 363 -12 478 58 l 511 15 b 550 -11 511 15 513 -17 l 756 25 l 756 49 b 685 128 697 56 685 61 z m 207 751 l 258 751 l 597 929 l 442 978 z "},"û":{"ha":776,"x_min":0,"x_max":0,"o":"m 685 128 l 685 654 l 446 628 l 446 604 b 511 493 517 596 511 578 l 511 179 b 390 89 482 124 429 89 b 274 204 310 89 274 126 l 274 654 l 24 628 l 24 604 b 101 497 104 593 101 581 l 101 200 b 276 -12 101 33 167 -12 b 511 138 363 -12 478 58 l 511 15 b 550 -11 511 15 513 -17 l 756 25 l 756 49 b 685 128 697 56 685 61 z m 219 718 l 385 825 l 549 718 l 600 718 l 385 978 l 169 718 z "},"ü":{"ha":776,"x_min":0,"x_max":0,"o":"m 336 856 b 254 938 336 900 300 938 b 172 856 208 938 172 900 b 254 772 172 810 208 772 b 336 856 300 772 336 810 z m 597 856 b 515 938 597 900 561 938 b 433 856 469 938 433 900 b 515 772 433 810 469 772 b 597 856 561 772 597 810 z m 685 128 l 685 654 l 446 628 l 446 604 b 511 493 517 596 511 578 l 511 179 b 390 89 482 124 429 89 b 274 204 310 89 274 126 l 274 654 l 24 628 l 24 604 b 101 497 104 593 101 581 l 101 200 b 276 -12 101 33 167 -12 b 511 138 363 -12 478 58 l 511 15 b 550 -11 511 15 513 -17 l 756 25 l 756 49 b 685 128 697 56 685 61 z "},"ý":{"ha":751,"x_min":0,"x_max":0,"o":"m 458 642 l 458 618 b 528 407 619 619 528 407 l 454 219 l 307 533 b 343 618 307 533 271 618 l 343 642 l 15 642 l 15 618 b 103 564 36 618 81 618 b 365 -12 103 564 279 186 l 313 -156 b 251 -207 290 -214 257 -224 b 204 -150 244 -183 229 -161 b 76 -199 156 -128 99 -150 b 125 -326 56 -247 76 -304 b 232 -312 158 -342 207 -333 b 336 -158 258 -292 300 -253 l 549 401 b 731 618 638 615 701 618 l 731 642 z m 181 751 l 232 751 l 571 929 l 415 978 z "},"þ":{"ha":833,"x_min":0,"x_max":0,"o":"m 428 11 b 265 199 357 11 278 57 l 265 453 b 408 603 275 536 325 603 b 574 303 521 603 574 526 b 428 11 574 92 529 11 z m 476 654 b 265 542 411 654 310 624 l 265 1015 l 24 960 l 24 936 b 93 858 79 915 93 906 l 93 -210 b 38 -344 93 -281 90 -329 l 38 -368 l 322 -368 l 322 -344 b 265 -210 274 -332 265 -287 l 265 31 b 431 -12 308 3 367 -12 b 772 315 625 -12 772 92 b 476 654 772 533 633 654 z "},"ÿ":{"ha":751,"x_min":0,"x_max":0,"o":"m 326 856 b 244 938 326 900 290 938 b 163 856 199 938 163 900 b 244 772 163 810 199 772 b 326 856 290 772 326 810 z m 588 856 b 506 938 588 900 551 938 b 424 856 460 938 424 900 b 506 772 424 810 460 772 b 588 856 551 772 588 810 z m 458 642 l 458 618 b 528 407 619 619 528 407 l 454 219 l 307 533 b 343 618 307 533 271 618 l 343 642 l 15 642 l 15 618 b 103 564 36 618 81 618 b 365 -12 103 564 279 186 l 313 -156 b 251 -207 290 -214 257 -224 b 204 -150 244 -183 229 -161 b 76 -199 156 -128 99 -150 b 125 -326 56 -247 76 -304 b 232 -312 158 -342 207 -333 b 336 -158 258 -292 300 -253 l 549 401 b 731 618 638 615 701 618 l 731 642 z "},"Ă":{"ha":983,"x_min":0,"x_max":0,"o":""},"ă":{"ha":732,"x_min":0,"x_max":0,"o":"m 417 143 b 325 72 404 110 372 72 b 235 164 235 72 235 164 b 417 331 235 235 281 300 b 417 143 417 331 417 146 z m 658 72 b 592 169 590 72 592 169 l 592 376 b 360 654 592 540 542 654 b 225 626 360 654 288 660 b 117 525 149 586 131 549 b 121 442 103 501 104 468 b 231 421 146 406 194 397 b 251 531 267 446 276 494 b 200 561 239 549 221 558 b 240 608 190 563 196 586 b 417 442 336 658 417 586 l 417 356 b 57 129 174 294 57 281 b 217 -12 57 -12 217 -12 b 418 100 315 -12 397 39 b 557 -12 433 -12 557 -12 b 719 86 644 -12 708 42 l 696 96 b 658 72 688 72 658 72 z m 368 876 b 203 978 236 876 203 926 l 179 978 b 368 772 179 872 233 772 b 553 978 500 772 553 872 l 529 978 b 368 876 529 926 496 876 z "},"Ą":{"ha":983,"x_min":0,"x_max":0,"o":"m 847 125 b 494 978 847 125 835 161 l 471 978 l 231 344 b 24 24 94 15 60 26 l 24 0 l 365 0 l 365 24 b 232 274 146 13 232 274 l 561 274 l 603 172 b 567 24 603 172 675 24 l 567 0 l 814 0 b 696 -192 726 -42 671 -100 b 849 -258 696 -192 718 -278 b 933 -149 929 -243 933 -192 l 910 -149 b 868 -197 910 -175 893 -193 b 782 -149 868 -197 799 -208 b 878 0 769 -99 801 -44 l 964 0 l 964 24 b 847 125 928 26 894 14 z m 236 297 l 388 703 l 553 297 z "},"ą":{"ha":732,"x_min":0,"x_max":0,"o":"m 658 72 b 592 169 590 72 592 169 l 592 376 b 360 654 592 540 542 654 b 225 626 360 654 288 660 b 117 525 149 586 131 549 b 121 442 103 501 104 468 b 231 421 146 406 194 397 b 251 531 267 446 276 494 b 200 561 239 549 221 558 b 240 608 190 563 196 586 b 417 442 336 658 417 586 l 417 356 b 57 129 174 294 57 281 b 217 -12 57 -12 217 -12 b 418 100 315 -12 397 39 b 526 -8 428 21 489 -1 b 428 -190 450 -50 406 -106 b 581 -257 428 -190 450 -276 b 665 -147 661 -242 665 -190 l 642 -147 b 600 -196 642 -174 625 -192 b 514 -147 600 -196 531 -207 b 592 -10 503 -101 529 -51 b 719 86 661 1 710 47 l 696 96 b 658 72 688 72 658 72 z m 417 143 b 325 72 404 110 372 72 b 235 164 235 72 235 164 b 417 331 235 235 281 300 z "},"Ć":{"ha":954,"x_min":0,"x_max":0,"o":"m 854 292 b 538 11 818 140 704 11 b 306 489 388 11 306 107 b 538 967 306 869 383 967 b 854 688 696 967 776 875 l 878 688 l 897 906 b 538 990 810 976 681 990 b 56 489 240 990 56 765 b 538 -12 56 213 240 -12 b 897 74 686 -12 794 6 l 878 292 z m 310 1021 l 361 1021 l 700 1199 l 544 1247 z "},"ć":{"ha":694,"x_min":0,"x_max":0,"o":"m 625 179 b 414 111 593 133 483 96 b 238 349 318 132 238 199 b 422 631 238 588 372 631 b 496 601 478 631 508 607 b 453 546 475 590 458 572 b 518 433 439 497 468 446 b 632 500 568 419 618 451 b 604 593 642 533 628 572 b 422 654 581 614 521 654 b 63 324 185 654 63 483 b 368 -12 63 161 186 -12 b 644 167 542 -12 625 96 z m 196 751 l 247 751 l 586 929 l 431 978 z "},"Č":{"ha":954,"x_min":0,"x_max":0,"o":"m 854 292 b 538 11 818 140 704 11 b 306 489 388 11 306 107 b 538 967 306 869 383 967 b 854 688 696 967 776 875 l 878 688 l 897 906 b 538 990 810 976 681 990 b 56 489 240 990 56 765 b 538 -12 56 213 240 -12 b 897 74 686 -12 794 6 l 878 292 z m 314 1281 l 529 1021 l 744 1281 l 693 1281 l 529 1174 l 364 1281 z "},"č":{"ha":694,"x_min":0,"x_max":0,"o":"m 625 179 b 414 111 593 133 483 96 b 238 349 318 132 238 199 b 422 631 238 588 372 631 b 496 601 478 631 508 607 b 453 546 475 590 458 572 b 518 433 439 497 468 446 b 632 500 568 419 618 451 b 604 593 642 533 628 572 b 422 654 581 614 521 654 b 63 324 185 654 63 483 b 368 -12 63 161 186 -12 b 644 167 542 -12 625 96 z m 178 978 l 393 718 l 608 978 l 557 978 l 393 871 l 228 978 z "},"Ď":{"ha":1067,"x_min":0,"x_max":0,"o":""},"ď":{"ha":1013,"x_min":0,"x_max":0,"o":"m 832 978 b 765 708 832 763 765 708 l 783 688 b 967 978 783 688 967 789 z m 554 203 b 401 36 554 106 496 36 b 243 343 289 36 243 119 b 389 631 243 554 288 631 b 554 399 468 631 554 574 z m 726 135 l 726 1036 l 483 985 l 483 961 b 554 878 540 940 554 926 l 554 613 b 388 654 510 639 451 654 b 46 331 193 654 46 554 b 342 -12 46 111 185 -12 b 554 100 407 -12 510 18 l 554 14 b 593 -11 554 14 554 -17 l 797 19 l 797 43 b 726 135 740 50 726 67 z "},"Đ":{"ha":1067,"x_min":0,"x_max":0,"o":"m 53 483 l 156 483 l 156 190 b 51 24 156 96 111 24 l 51 0 l 418 0 b 1000 485 694 0 1000 79 b 418 978 1000 892 694 978 l 51 978 l 51 954 b 156 786 113 954 156 872 l 156 507 l 53 507 z m 418 24 l 357 24 l 357 483 l 560 483 l 560 507 l 357 507 l 357 954 l 418 954 b 757 485 554 954 757 918 b 418 24 757 53 554 24 z "},"đ":{"ha":849,"x_min":0,"x_max":0,"o":"m 413 789 l 554 789 l 554 613 b 388 654 510 639 451 654 b 46 331 193 654 46 554 b 342 -12 46 111 185 -12 b 554 100 407 -12 510 18 l 554 14 b 593 -11 554 14 554 -17 l 797 19 l 797 43 b 726 135 740 50 726 67 l 726 789 l 850 789 l 850 813 l 726 813 l 726 1036 l 483 985 l 483 961 b 554 878 540 940 554 926 l 554 813 l 413 813 z m 554 203 b 401 36 554 106 496 36 b 243 343 289 36 243 119 b 389 631 243 554 288 631 b 554 399 468 631 554 574 z "},"Ę":{"ha":907,"x_min":0,"x_max":0,"o":"m 796 303 b 369 24 738 24 369 24 l 319 24 l 319 482 l 369 482 b 594 338 369 482 581 482 l 618 338 l 618 650 l 594 650 b 369 506 581 506 369 506 l 319 506 l 319 954 l 369 954 b 778 714 369 954 746 954 l 801 714 l 801 978 l 38 978 l 38 954 b 118 786 99 954 118 872 l 118 190 b 38 24 118 96 96 24 l 38 0 l 703 0 b 579 -194 613 -42 554 -100 b 732 -261 579 -194 601 -281 b 817 -151 813 -246 817 -194 l 793 -151 b 751 -200 793 -178 776 -196 b 665 -151 751 -200 682 -211 b 765 0 653 -100 686 -44 l 819 0 l 819 303 z "},"ę":{"ha":728,"x_min":0,"x_max":0,"o":"m 375 654 b 50 318 183 654 50 514 b 331 -10 50 163 163 6 b 229 -194 253 -50 207 -108 b 382 -261 229 -194 251 -281 b 467 -151 463 -246 467 -194 l 443 -151 b 401 -200 443 -178 426 -196 b 315 -151 401 -200 332 -211 b 399 -10 304 -104 332 -53 b 647 169 556 4 626 103 l 624 182 b 403 106 589 117 478 89 b 229 333 310 126 240 197 l 671 333 b 375 654 671 550 576 654 z m 229 357 b 368 631 229 490 286 631 b 501 357 444 631 501 532 z "},"Ě":{"ha":907,"x_min":0,"x_max":0,"o":"m 796 303 b 369 24 738 24 369 24 l 319 24 l 319 482 l 369 482 b 594 338 369 482 581 482 l 618 338 l 618 650 l 594 650 b 369 506 581 506 369 506 l 319 506 l 319 954 l 369 954 b 778 714 369 954 746 954 l 801 714 l 801 978 l 38 978 l 38 954 b 118 786 99 954 118 872 l 118 190 b 38 24 118 96 96 24 l 38 0 l 819 0 l 819 303 z m 238 1281 l 453 1021 l 668 1281 l 617 1281 l 453 1174 l 288 1281 z "},"ě":{"ha":728,"x_min":0,"x_max":0,"o":"m 229 357 b 368 631 229 490 286 631 b 501 357 444 631 501 532 z m 375 654 b 50 318 183 654 50 514 b 357 -12 50 156 175 -12 b 647 169 543 -12 625 97 l 624 182 b 403 106 589 117 478 89 b 229 333 310 126 240 197 l 671 333 b 375 654 671 550 576 654 z m 150 978 l 365 718 l 581 978 l 529 978 l 365 871 l 200 978 z "},"ı":{"ha":392,"x_min":0,"x_max":0,"o":"m 282 169 l 282 654 l 39 599 l 39 575 b 110 478 96 544 110 525 l 110 169 b 54 24 110 99 107 40 l 54 0 l 339 0 l 339 24 b 282 169 289 38 282 92 z "},"Ĺ":{"ha":926,"x_min":0,"x_max":0,"o":""},"ĺ":{"ha":368,"x_min":0,"x_max":0,"o":"m 275 168 l 275 1036 l 32 985 l 32 961 b 101 871 88 940 101 919 l 101 168 b 46 24 101 97 99 39 l 46 0 l 331 0 l 331 24 b 275 168 282 36 275 92 z m -11 1061 l 40 1061 l 379 1239 l 224 1288 z "},"Ľ":{"ha":926,"x_min":0,"x_max":0,"o":"m 525 978 b 458 708 525 763 458 708 l 476 688 b 660 978 476 688 660 789 z m 817 301 b 401 24 769 24 401 24 l 351 24 l 351 831 b 481 954 351 931 421 954 l 481 978 l 40 978 l 40 954 b 150 831 100 954 150 915 l 150 179 b 51 24 150 85 111 24 l 51 0 l 840 0 l 840 301 z "},"ľ":{"ha":586,"x_min":0,"x_max":0,"o":"m 374 978 b 307 708 374 763 307 708 l 325 688 b 508 978 325 688 508 789 z m 275 168 l 275 1036 l 32 985 l 32 961 b 101 871 88 940 101 919 l 101 168 b 46 24 101 97 99 39 l 46 0 l 331 0 l 331 24 b 275 168 282 36 275 92 z "},"Ł":{"ha":939,"x_min":0,"x_max":0,"o":"m 853 303 b 438 24 853 303 818 24 l 388 24 l 388 501 l 657 654 l 657 682 l 388 529 l 388 831 b 517 954 388 932 456 954 l 517 978 l 75 978 l 75 954 b 185 831 135 954 185 917 l 185 415 l 18 322 l 18 294 l 185 388 l 185 192 b 86 24 185 97 144 24 l 86 0 l 876 0 l 876 303 z "},"ł":{"ha":460,"x_min":0,"x_max":0,"o":"m 15 375 l 140 456 l 140 168 b 85 24 140 97 138 39 l 85 0 l 369 0 l 369 24 b 314 168 321 36 314 92 l 314 568 l 438 649 l 438 676 l 314 596 l 314 1036 l 71 985 l 71 961 b 140 871 126 940 140 919 l 140 483 l 15 403 z "},"Ń":{"ha":1167,"x_min":0,"x_max":0,"o":""},"ń":{"ha":749,"x_min":0,"x_max":0,"o":"m 661 169 l 661 443 b 486 654 661 611 594 654 b 257 506 399 654 289 590 l 257 654 l 14 599 l 14 575 b 83 481 71 544 83 529 l 83 167 b 29 24 83 96 82 39 l 29 0 l 314 0 l 314 24 b 257 167 265 38 257 90 l 257 440 b 375 554 257 496 321 554 b 488 439 444 554 488 506 l 488 169 b 432 24 488 99 485 39 l 432 0 l 718 0 l 718 24 b 661 169 668 36 661 93 z m 214 751 l 265 751 l 604 929 l 449 978 z "},"Ň":{"ha":1167,"x_min":0,"x_max":0,"o":"m 722 978 l 722 954 b 913 625 914 956 913 625 l 913 288 l 353 978 l 13 978 l 13 954 b 178 856 49 951 89 967 l 232 788 l 232 354 b 24 24 232 354 233 24 l 24 0 l 446 0 l 446 24 b 256 354 254 24 256 354 l 256 763 l 863 0 l 936 0 l 936 625 b 1143 954 936 625 933 956 l 1143 978 z m 372 1281 l 588 1021 l 803 1281 l 751 1281 l 588 1174 l 422 1281 z "},"ň":{"ha":749,"x_min":0,"x_max":0,"o":"m 661 169 l 661 443 b 486 654 661 611 594 654 b 257 506 399 654 289 590 l 257 654 l 14 599 l 14 575 b 83 481 71 544 83 529 l 83 167 b 29 24 83 96 82 39 l 29 0 l 314 0 l 314 24 b 257 167 265 38 257 90 l 257 440 b 375 554 257 496 321 554 b 488 439 444 554 488 506 l 488 169 b 432 24 488 99 485 39 l 432 0 l 718 0 l 718 24 b 661 169 668 36 661 93 z m 183 978 l 399 718 l 614 978 l 563 978 l 399 871 l 233 978 z "},"Ő":{"ha":1076,"x_min":0,"x_max":0,"o":"m 536 990 b 57 482 231 990 57 757 b 536 -12 57 206 231 -12 b 1015 482 842 -12 1015 206 b 536 990 1015 757 842 990 z m 536 11 b 294 482 371 11 294 100 b 536 967 294 863 371 967 b 775 482 700 967 775 863 b 536 11 775 100 700 11 z m 326 1021 l 378 1021 l 717 1199 l 561 1247 z m 576 1021 l 628 1021 l 967 1199 l 811 1247 z "},"ő":{"ha":772,"x_min":0,"x_max":0,"o":"m 388 654 b 57 321 176 654 57 504 b 388 -12 57 139 176 -12 b 718 321 600 -12 718 139 b 388 654 718 504 600 654 z m 388 11 b 261 321 288 11 261 69 b 388 631 261 572 288 631 b 513 321 488 631 513 572 b 388 11 513 69 488 11 z m 156 751 l 207 751 l 546 929 l 390 978 z m 406 751 l 457 751 l 796 929 l 640 978 z "},"Œ":{"ha":1394,"x_min":0,"x_max":0,"o":"m 661 190 b 511 11 661 11 579 11 b 297 482 346 11 297 100 b 511 967 297 863 346 967 b 661 786 582 967 661 967 z m 913 24 l 863 24 l 863 482 l 913 482 b 1082 338 913 482 1068 486 l 1106 338 l 1106 650 l 1082 650 b 913 506 1068 501 913 506 l 863 506 l 863 954 l 913 954 b 1265 714 913 954 1217 963 l 1289 714 l 1289 978 l 611 978 b 511 990 575 986 551 990 b 60 482 206 990 60 757 b 511 -12 60 206 206 -12 b 615 0 553 -12 578 -7 l 1307 0 l 1307 303 l 1283 303 b 913 24 1231 21 913 24 z "},"œ":{"ha":1086,"x_min":0,"x_max":0,"o":"m 647 354 b 765 631 647 488 679 631 b 874 354 838 631 874 529 z m 457 318 b 360 11 457 67 447 11 b 261 318 269 11 261 67 b 360 631 261 569 271 631 b 457 318 443 631 457 569 z m 986 182 b 794 106 951 133 869 89 b 647 331 701 126 653 193 l 1029 331 b 765 654 1029 547 954 654 b 569 558 693 654 628 617 b 360 654 525 615 453 654 b 57 318 149 654 57 501 b 360 -12 57 136 149 -12 b 568 78 454 -12 515 19 b 767 -12 622 25 686 -12 b 1013 168 942 -12 990 96 z "},"Ŕ":{"ha":1011,"x_min":0,"x_max":0,"o":""},"ŕ":{"ha":590,"x_min":0,"x_max":0,"o":"m 428 647 b 264 497 394 633 338 613 l 264 654 l 19 599 l 19 575 b 89 478 76 546 89 525 l 89 169 b 33 24 89 97 88 40 l 33 0 l 321 0 l 321 24 b 264 169 271 38 264 92 l 264 458 b 372 540 315 542 372 556 b 404 472 372 515 383 492 b 550 483 449 435 513 440 b 540 629 588 525 583 592 b 428 647 510 654 457 660 z m 114 751 l 165 751 l 504 929 l 349 978 z "},"Ř":{"ha":1011,"x_min":0,"x_max":0,"o":""},"ř":{"ha":590,"x_min":0,"x_max":0,"o":"m 428 647 b 264 497 394 633 338 613 l 264 654 l 19 599 l 19 575 b 89 478 76 546 89 525 l 89 169 b 33 24 89 97 88 40 l 33 0 l 321 0 l 321 24 b 264 169 271 38 264 92 l 264 458 b 372 540 315 542 372 556 b 404 472 372 515 383 492 b 550 483 449 435 513 440 b 540 629 588 525 583 592 b 428 647 510 654 457 660 z m 63 979 l 278 719 l 493 979 l 442 979 l 278 872 l 113 979 z "},"Ś":{"ha":856,"x_min":0,"x_max":0,"o":""},"ś":{"ha":617,"x_min":0,"x_max":0,"o":"m 421 360 l 281 447 b 289 631 160 524 199 631 b 494 457 432 631 476 506 l 518 457 l 518 613 b 289 654 518 613 449 654 b 97 585 150 654 97 585 b 192 290 21 485 57 372 l 332 206 b 322 11 438 136 421 11 b 94 226 160 11 115 172 l 71 226 l 71 51 b 322 -12 71 51 154 -12 b 517 63 464 -12 517 63 b 421 360 586 163 544 283 z m 138 751 l 189 751 l 528 929 l 372 978 z "},"Ş":{"ha":856,"x_min":0,"x_max":0,"o":"m 578 524 l 364 665 b 388 967 183 783 238 967 b 721 690 610 967 694 764 l 744 690 l 744 924 b 388 990 744 924 625 990 b 100 885 168 990 100 885 b 256 471 -15 733 58 594 l 469 336 b 444 11 639 213 593 11 b 88 340 197 11 118 256 l 64 340 l 64 74 b 394 -11 64 74 161 -1 l 354 -129 b 490 -225 460 -112 490 -200 b 421 -300 492 -268 465 -300 b 382 -289 382 -300 379 -292 b 393 -269 388 -285 392 -279 b 360 -218 397 -244 383 -224 b 307 -250 336 -212 313 -226 b 322 -293 304 -267 311 -285 b 421 -322 333 -303 369 -322 b 567 -207 467 -322 554 -300 b 393 -87 575 -136 519 -58 l 418 -12 l 444 -12 b 733 101 668 -12 733 101 b 578 524 838 253 761 403 z "},"ş":{"ha":617,"x_min":0,"x_max":0,"o":"m 421 360 l 281 447 b 289 631 160 524 199 631 b 494 457 432 631 476 506 l 518 457 l 518 613 b 289 654 518 613 449 654 b 97 585 150 654 97 585 b 192 290 21 485 57 372 l 332 206 b 322 11 438 136 421 11 b 94 226 160 11 115 172 l 71 226 l 71 51 b 289 -11 71 51 143 -4 l 249 -129 b 385 -225 354 -112 385 -200 b 315 -300 386 -268 360 -300 b 276 -289 276 -300 274 -292 b 288 -269 282 -285 286 -279 b 254 -218 292 -244 278 -224 b 201 -250 231 -212 207 -226 b 217 -293 199 -267 206 -285 b 315 -322 228 -303 264 -322 b 461 -207 361 -322 449 -300 b 288 -87 469 -136 414 -58 l 313 -12 l 322 -12 b 517 63 464 -12 517 63 b 421 360 586 163 544 283 z "},"Š":{"ha":856,"x_min":0,"x_max":0,"o":""},"š":{"ha":617,"x_min":0,"x_max":0,"o":"m 89 947 l 304 688 l 519 947 l 468 947 l 304 840 l 139 947 z m 421 360 l 281 447 b 289 631 160 524 199 631 b 494 457 432 631 476 506 l 518 457 l 518 613 b 289 654 518 613 449 654 b 97 585 150 654 97 585 b 192 290 21 485 57 372 l 332 206 b 322 11 438 136 421 11 b 94 226 160 11 115 172 l 71 226 l 71 51 b 322 -12 71 51 154 -12 b 517 63 464 -12 517 63 b 421 360 586 163 544 283 z "},"Ţ":{"ha":969,"x_min":0,"x_max":0,"o":"m 26 978 l 26 699 l 50 699 b 356 954 61 947 356 954 l 382 954 l 382 168 b 264 24 382 74 322 24 l 264 0 l 451 0 l 410 -122 b 546 -218 515 -106 546 -193 b 476 -293 547 -261 521 -293 b 438 -282 438 -293 435 -285 b 449 -262 443 -278 447 -272 b 415 -211 453 -237 439 -217 b 363 -243 392 -206 368 -219 b 378 -286 360 -260 367 -278 b 476 -315 389 -296 425 -315 b 622 -200 522 -315 610 -293 b 449 -81 631 -129 575 -51 l 475 0 l 701 0 l 701 24 b 583 168 643 24 583 74 l 583 954 l 610 954 b 917 699 610 954 906 947 l 940 699 l 940 978 z "},"ţ":{"ha":492,"x_min":0,"x_max":0,"o":"m 374 86 b 271 204 304 86 271 126 l 271 618 l 431 618 l 436 642 l 271 642 l 271 857 l 97 828 l 97 642 l 24 642 l 28 618 l 97 618 l 97 200 b 206 -4 97 68 136 13 l 165 -122 b 301 -218 271 -106 301 -193 b 232 -293 303 -261 276 -293 b 193 -282 193 -293 190 -285 b 204 -262 199 -278 203 -272 b 171 -211 208 -237 194 -217 b 118 -243 147 -206 124 -219 b 133 -286 115 -260 122 -278 b 232 -315 144 -296 181 -315 b 378 -200 278 -315 365 -293 b 204 -81 386 -129 331 -51 l 228 -10 b 272 -12 242 -11 257 -12 b 478 122 365 -12 450 57 l 457 135 b 374 86 444 114 414 86 z "},"Ť":{"ha":969,"x_min":0,"x_max":0,"o":"m 26 978 l 26 699 l 50 699 b 356 954 61 947 356 954 l 382 954 l 382 168 b 264 24 382 74 322 24 l 264 0 l 701 0 l 701 24 b 583 168 643 24 583 74 l 583 954 l 610 954 b 917 699 610 954 906 947 l 940 699 l 940 978 l 26 978 z m 269 1281 l 485 1021 l 700 1281 l 649 1281 l 485 1174 l 319 1281 z "},"ť":{"ha":536,"x_min":0,"x_max":0,"o":"m 372 978 b 306 708 372 763 306 708 l 324 688 b 507 978 324 688 507 789 z m 374 86 b 271 204 304 86 271 126 l 271 618 l 431 618 l 436 642 l 271 642 l 271 857 l 97 828 l 97 642 l 24 642 l 28 618 l 97 618 l 97 200 b 272 -12 97 32 163 -12 b 478 122 365 -12 450 57 l 457 135 b 374 86 444 114 414 86 z "},"Ů":{"ha":1044,"x_min":0,"x_max":0,"o":""},"ů":{"ha":779,"x_min":0,"x_max":0,"o":"m 685 128 l 685 654 l 446 628 l 446 604 b 511 493 517 596 511 578 l 511 179 b 390 89 482 124 429 89 b 274 204 310 89 274 126 l 274 654 l 24 628 l 24 604 b 101 497 104 593 101 581 l 101 200 b 276 -12 101 33 167 -12 b 511 138 363 -12 478 58 l 511 15 b 550 -11 511 15 513 -17 l 756 25 l 756 49 b 685 128 697 56 685 61 z m 408 931 b 485 854 451 931 485 897 b 408 778 485 813 451 778 b 333 854 367 778 333 813 b 408 931 333 897 367 931 z m 408 986 b 275 854 336 986 275 928 b 408 722 275 782 336 722 b 542 854 482 722 542 782 b 408 986 542 928 482 986 z "},"Ű":{"ha":1044,"x_min":0,"x_max":0,"o":""},"ű":{"ha":779,"x_min":0,"x_max":0,"o":"m 685 128 l 685 654 l 446 628 l 446 604 b 511 493 517 596 511 578 l 511 179 b 390 89 482 124 429 89 b 274 204 310 89 274 126 l 274 654 l 24 628 l 24 604 b 101 497 104 593 101 581 l 101 200 b 276 -12 101 33 167 -12 b 511 138 363 -12 478 58 l 511 15 b 550 -11 511 15 513 -17 l 756 25 l 756 49 b 685 128 697 56 685 61 z m 171 751 l 222 751 l 561 929 l 406 978 z m 421 751 l 472 751 l 811 929 l 656 978 z "},"Ÿ":{"ha":1071,"x_min":0,"x_max":0,"o":"m 403 1075 b 485 1157 449 1075 485 1111 b 403 1239 485 1201 449 1239 b 321 1157 358 1239 321 1201 b 403 1075 321 1111 358 1075 z m 664 1075 b 747 1157 710 1075 747 1111 b 664 1239 747 1201 710 1239 b 582 1157 619 1239 582 1201 b 664 1075 582 1111 619 1075 z m 636 978 l 636 954 b 713 671 836 954 713 671 l 619 478 l 424 797 b 456 956 329 957 426 956 l 456 978 l 13 978 l 13 956 b 161 846 47 956 100 951 b 432 383 161 846 228 744 l 432 168 b 314 24 432 74 372 24 l 314 0 l 751 0 l 751 24 b 633 168 693 24 633 74 l 633 454 l 725 647 b 1053 954 881 951 1017 954 l 1053 978 z "},"Ź":{"ha":857,"x_min":0,"x_max":0,"o":""},"ź":{"ha":643,"x_min":0,"x_max":0,"o":"m 597 642 l 90 642 l 83 458 l 107 458 b 401 618 139 550 215 618 l 40 0 l 554 0 l 567 211 l 543 211 b 258 24 524 156 467 24 z m 201 751 l 253 751 l 592 929 l 436 978 z "},"Ż":{"ha":857,"x_min":0,"x_max":0,"o":""},"ż":{"ha":643,"x_min":0,"x_max":0,"o":"m 597 642 l 90 642 l 83 458 l 107 458 b 401 618 139 550 215 618 l 40 0 l 554 0 l 567 211 l 543 211 b 258 24 524 156 467 24 z m 418 871 b 336 951 418 915 381 951 b 253 871 290 951 253 915 b 336 788 253 825 290 788 b 418 871 381 788 418 825 z "},"Ž":{"ha":857,"x_min":0,"x_max":0,"o":""},"ž":{"ha":647,"x_min":0,"x_max":0,"o":"m 117 947 l 332 688 l 547 947 l 496 947 l 332 840 l 167 947 z m 597 642 l 90 642 l 83 458 l 107 458 b 401 618 139 550 215 618 l 40 0 l 554 0 l 567 211 l 543 211 b 258 24 524 156 467 24 z "},"ƒ":{"ha":965,"x_min":0,"x_max":0,"o":"m 904 950 b 756 1021 889 975 829 1021 b 408 535 571 1021 442 803 l 304 535 l 301 511 l 407 511 l 342 -4 b 197 -308 342 -4 286 -308 b 143 -282 131 -308 132 -285 b 192 -242 163 -276 182 -262 b 154 -129 213 -200 194 -150 b 42 -168 113 -110 63 -126 b 47 -262 28 -197 32 -237 b 200 -332 63 -287 115 -332 b 536 136 389 -333 492 -200 l 588 511 l 751 511 l 760 535 l 590 535 l 611 692 b 758 997 611 692 665 997 b 807 969 818 997 817 972 b 760 929 786 964 769 950 b 799 817 739 888 757 838 b 910 856 839 797 889 814 b 904 950 924 885 919 925 z "},"ˆ":{"ha":431,"x_min":0,"x_max":0,"o":"m 431 738 l 215 999 l 0 738 l 50 738 l 215 844 l 381 738 z "},"ˇ":{"ha":433,"x_min":0,"x_max":0,"o":"m 0 1000 l 215 740 l 431 1000 l 379 1000 l 215 893 l 50 1000 z "},"ˉ":{"ha":424,"x_min":0,"x_max":0,"o":"m 458 810 l 458 915 l -35 915 l -35 810 z "},"˘":{"ha":371,"x_min":0,"x_max":0,"o":"m 188 876 b 22 978 56 876 22 926 l -1 978 b 188 772 -1 872 53 772 b 372 978 319 772 372 872 l 349 978 b 188 876 349 926 315 876 z "},"˙":{"ha":386,"x_min":0,"x_max":0,"o":"m 276 897 b 194 978 276 942 239 978 b 111 897 149 978 111 942 b 194 814 111 851 149 814 b 276 897 239 814 276 851 z "},"˚":{"ha":386,"x_min":0,"x_max":0,"o":"m 196 961 b 272 885 239 961 272 928 b 196 808 272 843 239 808 b 121 885 154 808 121 843 b 196 961 121 928 154 961 z m 196 1017 b 63 885 124 1017 63 958 b 196 753 63 813 124 753 b 329 885 269 753 329 813 b 196 1017 329 958 269 1017 z "},"˛":{"ha":386,"x_min":0,"x_max":0,"o":"m 343 -17 l 343 7 b 149 -215 215 -36 118 -99 b 301 -282 149 -215 171 -301 b 386 -172 382 -267 386 -215 l 363 -172 b 321 -221 363 -199 346 -217 b 235 -172 321 -221 251 -232 b 343 -17 222 -119 258 -62 z "},"˜":{"ha":618,"x_min":0,"x_max":0,"o":"m 369 764 b 636 950 369 764 536 708 l 615 961 b 406 890 579 886 454 874 l 240 951 b -26 765 240 951 72 1007 l -6 757 b 203 824 31 833 156 840 z "},"˝":{"ha":764,"x_min":0,"x_max":0,"o":"m 121 774 l 172 774 l 511 951 l 356 1000 z m 371 774 l 422 774 l 761 951 l 606 1000 z "},"Ω":{"ha":1025,"x_min":0,"x_max":0,"o":"m 961 243 b 819 165 935 178 863 165 l 663 165 b 772 268 674 194 725 218 b 921 625 889 392 921 501 b 513 1021 921 843 786 1021 b 104 625 239 1021 104 843 b 253 268 104 501 136 392 b 363 165 300 218 351 194 l 206 165 b 64 243 163 165 90 178 l 40 243 l 83 0 l 457 0 b 314 618 435 119 314 278 b 513 997 314 969 410 997 b 711 618 615 997 711 969 b 568 0 711 278 590 119 l 942 0 l 985 243 z "},"μ":{"ha":774,"x_min":0,"x_max":0,"o":"m 676 128 l 676 654 l 438 628 l 438 604 b 503 493 508 596 503 578 l 503 179 b 382 89 474 124 421 89 b 265 204 301 89 265 126 l 265 654 l 15 628 l 15 604 b 93 497 96 593 93 581 l 93 -340 b 133 -367 93 -340 93 -374 l 338 -331 l 338 -307 b 267 -219 279 -307 267 -287 l 267 -12 b 503 138 353 -12 469 58 l 503 15 b 542 -11 503 15 504 -17 l 747 25 l 747 49 b 676 128 689 56 676 61 z "},"π":{"ha":808,"x_min":0,"x_max":0,"o":"m 729 92 b 683 63 729 92 719 63 b 628 160 683 63 628 65 l 628 517 l 628 517 b 786 729 768 517 786 611 l 763 729 b 601 642 754 650 703 642 l 244 642 b 11 426 79 636 11 426 l 33 413 b 249 517 99 496 197 514 l 249 517 l 231 251 b 79 -43 225 165 165 24 l 93 -61 b 321 243 93 -61 314 76 l 339 517 l 499 517 l 499 125 b 621 -12 499 125 499 -12 b 751 79 703 -12 743 29 z "},"‐":{"ha":621,"x_min":0,"x_max":0,"o":"m 526 289 l 526 418 l 89 418 l 89 289 z "},"–":{"ha":779,"x_min":0,"x_max":0,"o":"m 0 397 l 0 303 l 779 303 l 779 397 z "},"—":{"ha":1465,"x_min":0,"x_max":0,"o":"m 0 397 l 0 303 l 1465 303 l 1465 397 z "},"‘":{"ha":372,"x_min":0,"x_max":0,"o":"m 143 907 b 117 647 99 840 47 717 b 279 647 161 603 235 603 b 278 810 324 693 324 767 b 200 843 256 832 228 840 b 275 997 178 846 196 936 l 260 1017 b 143 907 196 982 163 938 z "},"’":{"ha":379,"x_min":0,"x_max":0,"o":"m 246 725 b 272 985 290 792 342 915 b 110 985 228 1029 154 1029 b 111 822 65 939 65 865 b 189 789 133 800 161 792 b 114 635 211 786 193 696 l 129 615 b 246 725 193 650 226 694 z "},"‚":{"ha":386,"x_min":0,"x_max":0,"o":"m 250 -74 b 276 186 294 -7 346 117 b 114 186 232 231 158 231 b 115 24 69 140 69 67 b 193 -10 138 1 165 -7 b 118 -164 215 -12 197 -103 l 133 -183 b 250 -74 197 -149 231 -104 z "},"“":{"ha":735,"x_min":0,"x_max":0,"o":"m 131 914 b 104 654 86 847 35 724 b 267 654 149 610 222 610 b 265 817 311 700 311 774 b 188 850 243 839 215 847 b 263 1004 165 853 183 943 l 247 1024 b 131 914 183 989 150 944 z m 478 914 b 451 654 433 847 382 724 b 614 654 496 610 569 610 b 613 817 658 700 658 774 b 535 850 590 839 563 847 b 610 1004 513 853 531 943 l 594 1024 b 478 914 531 989 497 944 z "},"”":{"ha":724,"x_min":0,"x_max":0,"o":"m 246 725 b 272 985 290 792 342 915 b 110 985 228 1029 154 1029 b 111 822 65 939 65 865 b 189 789 133 800 161 792 b 114 635 211 786 193 696 l 129 615 b 246 725 193 650 226 694 z m 593 725 b 619 985 638 792 689 915 b 457 985 575 1029 501 1029 b 458 822 413 939 413 865 b 536 789 481 800 508 792 b 461 635 558 786 540 696 l 476 615 b 593 725 540 650 574 694 z "},"„":{"ha":724,"x_min":0,"x_max":0,"o":"m 243 -74 b 269 186 288 -7 339 117 b 107 186 225 231 151 231 b 108 24 63 140 63 67 b 186 -10 131 1 158 -7 b 111 -164 208 -12 190 -103 l 126 -183 b 243 -74 190 -149 224 -104 z m 590 -74 b 617 186 635 -7 686 117 b 454 186 572 231 499 231 b 456 24 410 140 410 67 b 533 -10 478 1 506 -7 b 458 -164 556 -12 538 -103 l 474 -183 b 590 -74 538 -149 571 -104 z "},"†":{"ha":590,"x_min":0,"x_max":0,"o":"m 294 896 b 361 964 331 896 361 926 b 294 1031 361 1000 331 1031 b 226 964 257 1031 226 1000 b 294 896 226 926 257 896 z m 169 631 b 39 643 135 654 74 679 b 39 561 15 621 17 585 b 121 563 63 539 99 539 b 138 601 132 574 136 588 b 217 564 139 611 188 601 l 224 569 b 169 631 204 601 183 621 z m 307 560 b 339 757 307 638 339 683 b 294 842 339 757 339 842 b 250 757 250 842 250 757 b 282 560 250 683 282 633 b 221 406 282 560 285 486 b 289 -368 290 50 289 -368 l 301 -368 b 368 406 301 -368 299 50 b 307 560 304 482 307 560 z m 549 643 b 419 631 514 679 454 654 b 364 569 404 621 383 601 l 371 564 b 450 601 400 601 449 611 b 467 563 451 588 456 574 b 549 561 490 539 526 539 b 549 643 572 585 572 621 z "},"‡":{"ha":751,"x_min":0,"x_max":0,"o":"m 463 342 b 386 486 385 390 386 486 b 428 682 386 581 428 590 b 374 786 428 682 428 786 b 318 682 318 786 318 682 b 360 486 318 590 360 575 b 282 342 360 486 361 396 b 360 199 361 294 360 199 b 318 3 360 103 318 93 b 374 -101 318 3 318 -101 b 428 3 428 -101 428 3 b 386 199 428 93 386 108 b 463 342 386 199 385 288 z m 565 586 b 585 538 565 569 571 551 b 686 538 613 510 657 510 b 686 638 714 565 714 610 b 526 622 643 682 568 651 b 460 547 508 610 482 586 l 467 542 b 565 586 504 586 564 599 z m 374 856 b 456 938 418 856 456 892 b 374 1021 456 983 418 1021 b 290 938 328 1021 290 983 b 374 856 290 892 328 856 z m 374 -168 b 290 -250 328 -168 290 -206 b 374 -333 290 -297 328 -333 b 456 -250 418 -333 456 -297 b 374 -168 456 -206 418 -168 z m 161 538 b 182 586 175 551 181 569 b 278 542 183 599 242 586 l 286 547 b 219 622 263 586 238 610 b 60 638 178 651 103 682 b 60 538 32 610 32 565 b 161 538 89 510 133 510 z m 585 153 b 565 104 571 139 565 122 b 467 150 564 93 504 104 l 460 144 b 526 68 482 104 508 82 b 686 53 568 40 643 10 b 686 153 714 81 714 125 b 585 153 657 182 613 182 z m 182 104 b 161 153 181 122 175 139 b 60 153 133 182 88 182 b 60 53 32 125 32 81 b 219 68 103 10 178 40 b 286 144 238 82 263 104 l 278 150 b 182 104 242 104 182 93 z "},"•":{"ha":694,"x_min":0,"x_max":0,"o":"m 347 306 b 517 474 442 306 517 381 b 347 643 517 568 442 643 b 178 474 254 643 178 568 b 347 306 178 381 254 306 z "},"…":{"ha":1203,"x_min":0,"x_max":0,"o":"m 354 106 b 236 224 354 171 301 224 b 119 106 172 224 119 171 b 236 -11 119 40 172 -11 b 354 106 301 -11 354 40 z m 722 106 b 606 224 722 171 669 224 b 488 106 540 224 488 171 b 606 -11 488 40 540 -11 b 722 106 669 -11 722 40 z m 1092 106 b 974 224 1092 171 1039 224 b 856 106 908 224 856 171 b 974 -11 856 40 908 -11 b 1092 106 1039 -11 1092 40 z "},"‰":{"ha":1571,"x_min":0,"x_max":0,"o":"m 176 0 l 267 0 l 900 978 l 810 978 z m 218 943 b 25 690 65 943 25 826 b 218 446 25 553 65 446 b 410 690 369 446 410 553 b 218 943 410 826 369 943 z m 218 469 b 147 690 157 469 147 501 b 218 919 147 879 156 919 b 288 690 278 919 288 879 b 218 469 288 501 281 469 z m 858 532 b 665 279 706 532 665 415 b 858 35 665 142 706 35 b 1050 279 1010 35 1050 142 b 858 532 1050 415 1010 532 z m 858 58 b 788 279 797 58 788 90 b 858 508 788 468 796 508 b 928 279 918 508 928 468 b 858 58 928 90 921 58 z m 1329 532 b 1136 279 1176 532 1136 415 b 1329 35 1136 142 1176 35 b 1521 279 1481 35 1521 142 b 1329 532 1521 415 1481 532 z m 1329 58 b 1258 279 1268 58 1258 90 b 1329 508 1258 468 1267 508 b 1399 279 1389 508 1399 468 b 1329 58 1399 90 1392 58 z "},"‹":{"ha":471,"x_min":0,"x_max":0,"o":"m 390 701 l 69 369 l 390 46 l 390 100 l 219 369 l 390 647 z "},"›":{"ha":471,"x_min":0,"x_max":0,"o":"m 67 647 l 238 369 l 67 100 l 67 46 l 388 369 l 67 701 z "},"⁄":{"ha":488,"x_min":0,"x_max":0,"o":"m 636 1019 l -203 0 l -114 0 l 726 1019 z "},"€":{"ha":865,"x_min":0,"x_max":0,"o":"m 564 967 b 760 750 693 967 760 869 l 783 750 l 783 935 b 564 990 728 976 681 990 b 172 586 300 990 200 807 l 47 586 l 31 563 l 169 563 b 165 489 167 535 165 507 b 169 417 165 471 167 440 l 47 417 l 31 393 l 172 393 b 564 -12 199 171 300 -12 b 783 43 668 -12 728 1 l 783 228 l 760 228 b 564 11 760 108 689 11 b 368 393 418 11 378 104 l 642 393 l 658 417 l 367 417 l 367 489 l 367 563 l 664 563 l 682 586 l 368 586 b 564 967 378 875 418 967 z "},"ℓ":{"ha":499,"x_min":0,"x_max":0,"o":"m 457 133 b 390 67 443 90 415 72 b 286 254 321 58 276 113 l 289 411 l 358 476 b 394 982 483 594 493 876 b 118 667 300 1082 118 1022 l 118 382 l 31 313 l 31 240 l 118 307 l 118 263 b 332 -12 118 29 225 -12 b 479 126 396 -12 474 46 z m 290 699 b 381 963 290 1089 376 968 b 326 522 428 899 471 661 l 290 488 z "},"™":{"ha":1000,"x_min":0,"x_max":0,"o":"m 18 978 l 18 864 l 42 864 b 153 954 42 954 153 954 l 163 954 l 163 663 b 115 603 163 624 139 603 l 115 579 l 293 579 l 293 603 b 246 663 269 603 246 624 l 246 954 l 256 954 b 367 864 256 954 367 954 l 390 864 l 390 978 z m 919 661 l 919 904 b 964 954 919 940 940 954 l 964 978 l 839 978 l 722 693 l 590 978 l 447 978 l 447 954 b 506 935 461 954 492 954 l 506 735 b 428 603 506 735 513 603 l 428 579 l 599 579 l 599 603 b 529 735 521 603 529 735 l 529 906 l 676 575 l 700 575 l 839 907 l 839 661 b 799 603 839 622 822 603 l 799 579 l 969 579 l 969 603 b 919 661 944 603 919 622 z "},"Ω":{"ha":1026,"x_min":0,"x_max":0,"o":"m 961 243 b 819 165 935 178 863 165 l 663 165 b 772 268 674 194 725 218 b 921 625 889 392 921 501 b 513 1021 921 843 786 1021 b 104 625 239 1021 104 843 b 253 268 104 501 136 392 b 363 165 300 218 351 194 l 206 165 b 64 243 163 165 90 178 l 40 243 l 83 0 l 457 0 b 314 618 435 119 314 278 b 513 997 314 969 410 997 b 711 618 615 997 711 969 b 568 0 711 278 590 119 l 942 0 l 985 243 z "},"℮":{"ha":1239,"x_min":0,"x_max":0,"o":"m 250 840 b 618 974 344 922 475 974 b 994 833 765 974 899 919 l 994 553 l 250 553 z m 618 1021 b 44 510 301 1021 44 792 b 618 0 44 228 301 0 b 1068 194 801 0 963 75 l 1001 194 b 618 47 906 104 769 47 b 250 179 475 47 344 97 l 250 510 l 1192 510 b 618 1021 1192 792 935 1021 z "},"∂":{"ha":794,"x_min":0,"x_max":0,"o":"m 365 1033 b 85 928 239 1033 140 993 l 132 779 l 160 789 b 365 1010 158 889 251 1010 b 538 507 489 1010 569 906 b 328 642 511 606 392 642 b 57 315 133 642 71 475 b 358 -12 39 92 164 -12 b 735 461 594 -12 711 172 b 365 1033 764 817 607 1033 z m 358 11 b 244 286 263 11 226 63 b 397 574 261 476 321 574 b 532 458 439 574 513 525 b 358 11 506 164 453 11 z "},"∆":{"ha":992,"x_min":0,"x_max":0,"o":"m 521 1025 l 444 1000 l 46 39 l 44 36 l 53 0 l 908 0 l 929 44 z m 121 61 l 414 732 l 707 61 z "},"∏":{"ha":1165,"x_min":0,"x_max":0,"o":"m 1124 954 l 1124 978 l 36 978 l 36 954 b 168 817 106 954 168 913 l 168 68 b 36 -94 168 -39 103 -94 l 36 -118 l 528 -118 l 528 -94 b 396 68 463 -94 396 -39 l 396 814 b 528 954 396 911 461 954 l 631 954 b 764 814 699 954 764 911 l 764 68 b 631 -94 764 -39 697 -94 l 631 -118 l 1124 -118 l 1124 -94 b 990 68 1057 -94 990 -39 l 990 817 b 1124 954 990 913 1056 954 z "},"∑":{"ha":944,"x_min":0,"x_max":0,"o":"m 308 954 l 376 954 b 856 657 581 954 800 817 l 879 657 l 849 978 l 29 978 l 374 333 l 106 -136 l 865 -136 l 903 233 l 881 233 b 336 -112 844 136 738 -112 l 242 -112 l 585 472 z "},"−":{"ha":869,"x_min":0,"x_max":0,"o":"m 807 289 l 807 418 l 67 418 l 67 289 z "},"∕":{"ha":489,"x_min":0,"x_max":0,"o":"m 636 1019 l -203 0 l -114 0 l 726 1019 z "},"∙":{"ha":386,"x_min":0,"x_max":0,"o":"m 282 414 b 194 501 282 463 243 501 b 108 414 146 501 108 463 b 194 328 108 367 146 328 b 282 414 243 328 282 367 z "},"√":{"ha":785,"x_min":0,"x_max":0,"o":"m 489 108 l 285 582 l 64 486 l 72 465 b 213 367 125 486 182 439 l 479 -258 l 504 -249 l 754 1183 l 679 1204 z "},"∞":{"ha":1110,"x_min":0,"x_max":0,"o":"m 869 326 b 790 293 847 306 819 293 b 713 326 761 293 733 306 l 633 404 l 713 483 b 790 515 732 504 760 515 b 869 483 821 515 849 504 b 901 404 890 463 901 435 b 869 326 901 375 890 347 z m 382 326 b 303 293 360 306 332 293 b 224 326 274 293 246 306 b 192 404 203 347 192 375 b 224 483 192 435 203 463 b 303 515 244 504 272 515 b 381 483 333 515 361 504 l 460 406 z m 956 569 b 790 639 911 614 853 639 b 625 569 728 639 671 615 l 547 492 l 468 569 b 303 639 424 614 365 639 b 135 571 239 639 178 614 b 135 240 50 479 46 329 b 303 171 178 197 239 171 b 468 240 365 171 424 196 l 547 318 l 625 240 b 790 171 671 194 728 171 b 956 240 853 171 911 196 b 956 569 1047 331 1047 479 z "},"∫":{"ha":564,"x_min":0,"x_max":0,"o":"m 518 1093 b 392 1146 501 1114 454 1146 b 188 618 238 1146 158 968 l 236 7 b 172 -268 263 -268 182 -268 b 133 -249 135 -268 124 -253 b 172 -211 150 -244 165 -229 b 129 -115 188 -174 168 -129 b 33 -157 92 -99 47 -118 b 46 -240 24 -183 31 -218 b 171 -292 61 -261 108 -292 b 375 235 328 -292 404 -114 l 326 847 b 392 1122 303 1122 376 1122 b 432 1103 426 1122 438 1104 b 390 1064 414 1099 399 1083 b 433 968 376 1025 394 983 b 529 1010 471 951 515 971 b 518 1093 539 1035 535 1072 z "},"≈":{"ha":739,"x_min":0,"x_max":0,"o":"m 433 424 b 700 610 433 424 600 368 l 679 621 b 469 550 643 546 518 533 l 304 611 b 38 425 304 611 136 667 l 58 417 b 267 483 94 493 219 500 z m 433 171 b 700 357 433 171 600 115 l 679 368 b 469 297 643 293 518 281 l 304 358 b 38 172 304 358 136 414 l 58 164 b 267 231 94 240 219 247 z "},"≠":{"ha":732,"x_min":0,"x_max":0,"o":"m 667 478 l 667 572 l 506 572 l 572 719 l 488 760 l 401 572 l 64 572 l 64 478 l 356 478 l 278 307 l 64 307 l 64 213 l 233 213 l 172 79 l 258 40 l 338 213 l 667 213 l 667 307 l 383 307 l 461 478 z "},"≤":{"ha":739,"x_min":0,"x_max":0,"o":"m 65 93 l 65 -28 l 665 -28 l 665 93 z m 306 478 l 665 667 l 665 813 l 78 511 l 78 446 l 665 146 l 665 289 z "},"≥":{"ha":739,"x_min":0,"x_max":0,"o":"m 76 93 l 76 -28 l 676 -28 l 676 93 z m 76 289 l 76 146 l 664 446 l 664 511 l 76 813 l 76 667 l 436 478 z "},"◊":{"ha":776,"x_min":0,"x_max":0,"o":"m 418 1018 l 356 1018 l 67 454 l 67 454 l 356 -110 l 418 -110 l 707 454 l 707 454 z m 581 454 l 386 81 l 192 454 l 192 454 l 386 828 z "},"":{"ha":806,"x_min":0,"x_max":0,"o":"m 410 654 b 78 318 197 654 78 535 b 410 -12 78 96 197 -12 b 743 318 624 -12 743 93 b 410 654 743 544 624 654 z m 410 11 b 282 318 296 11 282 67 b 410 631 282 572 296 631 b 536 318 522 631 536 572 b 410 11 536 67 522 11 z "},"":{"ha":713,"x_min":0,"x_max":0,"o":"m 283 132 b 153 24 283 28 208 24 l 153 0 l 569 0 l 569 24 b 457 132 521 24 457 25 l 457 654 l 457 654 l 179 604 l 179 581 b 283 507 250 581 283 576 z "},"":{"ha":746,"x_min":0,"x_max":0,"o":"m 618 242 b 492 163 589 186 539 163 l 279 156 b 600 504 339 214 624 276 b 221 625 582 694 283 664 b 118 515 146 578 125 536 b 136 435 110 489 115 457 b 246 433 165 404 215 403 b 247 543 276 463 278 513 b 192 564 232 558 211 565 b 226 603 183 564 179 579 b 428 483 310 639 411 583 b 246 154 442 400 414 308 l 100 0 l 575 0 l 642 242 z "},"":{"ha":769,"x_min":0,"x_max":0,"o":"m 708 -17 b 510 210 703 68 635 160 b 372 654 744 436 568 654 b 125 424 372 654 157 654 l 149 418 b 401 488 201 526 339 539 b 278 156 481 424 510 228 l 278 132 b 542 -87 493 103 536 -37 b 382 -344 553 -201 524 -344 b 253 -300 271 -344 239 -306 b 304 -240 278 -286 297 -269 b 226 -111 318 -182 285 -125 b 99 -192 169 -97 111 -133 b 133 -299 89 -232 107 -275 b 383 -368 192 -351 261 -368 b 708 -17 504 -368 724 -265 z "},"":{"ha":808,"x_min":0,"x_max":0,"o":"m 732 -67 l 732 31 l 588 31 l 588 642 l 526 654 l 68 -43 l 68 -67 l 386 -67 l 386 -174 b 268 -344 386 -339 326 -344 l 268 -368 l 706 -368 l 706 -344 b 588 -167 647 -344 588 -342 l 588 -67 z m 386 31 l 207 31 b 189 104 179 31 140 31 l 386 404 z "},"":{"ha":768,"x_min":0,"x_max":0,"o":"m 157 256 l 196 460 l 622 460 l 682 642 l 201 642 l 99 86 b 557 -108 447 133 540 -50 b 349 -344 586 -210 539 -344 b 260 -308 254 -344 242 -319 b 307 -244 283 -294 300 -274 b 228 -115 321 -186 285 -128 b 97 -194 169 -101 111 -137 b 132 -303 89 -235 104 -279 b 349 -368 161 -326 226 -368 b 700 -50 540 -368 700 -261 b 157 256 700 101 585 322 z "},"":{"ha":822,"x_min":0,"x_max":0,"o":"m 501 654 b 282 524 438 654 325 636 b 485 967 283 904 385 967 b 565 944 549 967 574 946 b 507 906 542 940 521 926 b 536 774 479 861 492 801 b 668 804 582 746 640 758 b 669 903 688 835 686 876 b 485 990 654 928 597 990 b 63 435 265 990 63 776 b 417 -12 63 158 182 -12 b 761 322 610 -12 761 107 b 501 654 761 475 699 654 z m 417 11 b 282 465 313 11 286 164 b 428 596 304 553 385 596 b 557 294 504 596 557 476 b 417 11 557 79 521 11 z "},"":{"ha":772,"x_min":0,"x_max":0,"o":"m 113 642 l 79 382 l 103 382 b 232 463 132 438 185 463 l 611 463 b 269 -356 322 104 269 -106 l 467 -356 b 635 463 467 -119 469 168 l 739 642 z "},"":{"ha":797,"x_min":0,"x_max":0,"o":"m 486 593 b 264 814 326 656 264 726 b 394 967 264 915 321 967 b 558 769 471 967 558 926 b 486 593 558 679 542 619 z m 568 182 b 414 11 568 67 503 11 b 214 219 282 11 214 101 b 304 442 214 358 269 424 b 363 410 325 429 339 422 b 568 182 447 365 568 296 z m 749 281 b 511 581 749 396 642 515 b 685 788 628 607 685 704 b 394 990 685 919 561 990 b 96 726 231 990 96 906 b 279 457 96 638 150 536 b 61 211 174 432 61 331 b 414 -12 61 44 208 -12 b 749 281 603 -12 749 65 z "},"":{"ha":797,"x_min":0,"x_max":0,"o":"m 313 -12 b 532 103 376 -12 490 -3 b 329 -344 531 -278 503 -344 b 240 -321 265 -344 231 -322 b 307 -278 267 -317 292 -301 b 275 -133 338 -229 324 -164 b 131 -167 225 -103 161 -117 b 128 -275 108 -200 110 -246 b 329 -368 144 -303 192 -368 b 751 193 608 -368 751 -149 b 397 654 751 469 632 654 b 53 314 204 654 53 557 b 313 -12 53 161 115 -12 z m 397 631 b 532 164 501 631 532 442 b 386 46 510 76 429 46 b 257 342 310 46 257 160 b 397 631 257 557 293 631 z "},"":{"ha":825,"x_min":0,"x_max":0,"o":"m 411 11 l 411 372 l 469 336 b 411 11 613 232 631 11 z m 388 649 l 364 665 b 388 967 183 783 238 967 z m 578 524 l 411 633 l 411 967 b 733 690 617 953 707 761 l 744 690 l 744 924 b 411 990 744 924 632 986 l 411 1160 l 388 1160 l 388 990 b 100 885 168 990 100 885 b 256 471 -15 733 58 594 l 388 388 l 388 13 b 75 340 183 49 103 263 l 64 340 l 64 74 b 388 -12 64 74 160 -1 l 388 -182 l 411 -182 l 411 -12 b 733 101 607 -12 676 32 b 578 524 838 253 761 403 z "},"":{"ha":740,"x_min":0,"x_max":0,"o":"m 279 349 b 440 629 279 556 381 617 l 440 114 b 279 349 351 139 279 206 z m 667 179 b 464 108 636 135 533 99 l 464 631 b 538 601 519 631 550 607 b 494 546 517 590 500 572 b 560 433 481 497 510 446 b 674 500 610 419 660 451 b 646 593 683 533 669 572 b 464 654 622 614 563 654 l 464 824 l 440 824 l 440 654 b 104 324 218 643 104 478 b 440 -12 104 161 206 -12 l 440 -164 l 464 -164 l 464 -12 b 686 167 600 6 668 103 z "},"":{"ha":825,"x_min":0,"x_max":0,"o":"m 411 11 l 411 372 l 469 336 b 411 11 613 232 631 11 z m 388 649 l 364 665 b 388 967 183 783 238 967 z m 578 524 l 411 633 l 411 967 b 733 690 617 953 707 761 l 744 690 l 744 924 b 411 990 744 924 632 986 l 411 1160 l 388 1160 l 388 990 b 100 885 168 990 100 885 b 256 471 -15 733 58 594 l 388 388 l 388 13 b 75 340 183 49 103 263 l 64 340 l 64 74 b 388 -12 64 74 160 -1 l 388 -182 l 411 -182 l 411 -12 b 733 101 607 -12 676 32 b 578 524 838 253 761 403 z "},"":{"ha":806,"x_min":0,"x_max":0,"o":"m 410 654 b 78 318 197 654 78 535 b 410 -12 78 96 197 -12 b 743 318 624 -12 743 93 b 410 654 743 544 624 654 z m 410 11 b 282 318 296 11 282 67 b 410 631 282 572 296 631 b 536 318 522 631 536 572 b 410 11 536 67 522 11 z "},"":{"ha":713,"x_min":0,"x_max":0,"o":"m 283 132 b 153 24 283 28 208 24 l 153 0 l 569 0 l 569 24 b 457 132 521 24 457 25 l 457 654 l 457 654 l 179 604 l 179 581 b 283 507 250 581 283 576 z "},"":{"ha":746,"x_min":0,"x_max":0,"o":"m 618 242 b 492 163 589 186 539 163 l 279 156 b 600 504 339 214 624 276 b 221 625 582 694 283 664 b 118 515 146 578 125 536 b 136 435 110 489 115 457 b 246 433 165 404 215 403 b 247 543 276 463 278 513 b 192 564 232 558 211 565 b 226 603 183 564 179 579 b 428 483 310 639 411 583 b 246 154 442 400 414 308 l 100 0 l 575 0 l 642 242 z "},"":{"ha":769,"x_min":0,"x_max":0,"o":"m 708 -17 b 510 210 703 68 635 160 b 372 654 744 436 568 654 b 125 424 372 654 157 654 l 149 418 b 401 488 201 526 339 539 b 278 156 481 424 510 228 l 278 132 b 542 -87 493 103 536 -37 b 382 -344 553 -201 524 -344 b 253 -300 271 -344 239 -306 b 304 -240 278 -286 297 -269 b 226 -111 318 -182 285 -125 b 99 -192 169 -97 111 -133 b 133 -299 89 -232 107 -275 b 383 -368 192 -351 261 -368 b 708 -17 504 -368 724 -265 z "},"":{"ha":808,"x_min":0,"x_max":0,"o":"m 732 -67 l 732 31 l 588 31 l 588 642 l 526 654 l 68 -43 l 68 -67 l 386 -67 l 386 -174 b 268 -344 386 -339 326 -344 l 268 -368 l 706 -368 l 706 -344 b 588 -167 647 -344 588 -342 l 588 -67 z m 386 31 l 207 31 b 189 104 179 31 140 31 l 386 404 z "},"":{"ha":768,"x_min":0,"x_max":0,"o":"m 157 256 l 196 460 l 622 460 l 682 642 l 201 642 l 99 86 b 557 -108 447 133 540 -50 b 349 -344 586 -210 539 -344 b 260 -308 254 -344 242 -319 b 307 -244 283 -294 300 -274 b 228 -115 321 -186 285 -128 b 97 -194 169 -101 111 -137 b 132 -303 89 -235 104 -279 b 349 -368 161 -326 226 -368 b 700 -50 540 -368 700 -261 b 157 256 700 101 585 322 z "},"":{"ha":822,"x_min":0,"x_max":0,"o":"m 501 654 b 282 524 438 654 325 636 b 485 967 283 904 385 967 b 565 944 549 967 574 946 b 507 906 542 940 521 926 b 536 774 479 861 492 801 b 668 804 582 746 640 758 b 669 903 688 835 686 876 b 485 990 654 928 597 990 b 63 435 265 990 63 776 b 417 -12 63 158 182 -12 b 761 322 610 -12 761 107 b 501 654 761 475 699 654 z m 417 11 b 282 465 313 11 286 164 b 428 596 304 553 385 596 b 557 294 504 596 557 476 b 417 11 557 79 521 11 z "},"":{"ha":772,"x_min":0,"x_max":0,"o":"m 113 642 l 79 382 l 103 382 b 232 463 132 438 185 463 l 611 463 b 269 -356 322 104 269 -106 l 467 -356 b 635 463 467 -119 469 168 l 739 642 z "},"":{"ha":797,"x_min":0,"x_max":0,"o":"m 486 593 b 264 814 326 656 264 726 b 394 967 264 915 321 967 b 558 769 471 967 558 926 b 486 593 558 679 542 619 z m 568 182 b 414 11 568 67 503 11 b 214 219 282 11 214 101 b 304 442 214 358 269 424 b 363 410 325 429 339 422 b 568 182 447 365 568 296 z m 749 281 b 511 581 749 396 642 515 b 685 788 628 607 685 704 b 394 990 685 919 561 990 b 96 726 231 990 96 906 b 279 457 96 638 150 536 b 61 211 174 432 61 331 b 414 -12 61 44 208 -12 b 749 281 603 -12 749 65 z "},"":{"ha":797,"x_min":0,"x_max":0,"o":"m 313 -12 b 532 103 376 -12 490 -3 b 329 -344 531 -278 503 -344 b 240 -321 265 -344 231 -322 b 307 -278 267 -317 292 -301 b 275 -133 338 -229 324 -164 b 131 -167 225 -103 161 -117 b 128 -275 108 -200 110 -246 b 329 -368 144 -303 192 -368 b 751 193 608 -368 751 -149 b 397 654 751 469 632 654 b 53 314 204 654 53 557 b 313 -12 53 161 115 -12 z m 397 631 b 532 164 501 631 532 442 b 386 46 510 76 429 46 b 257 342 310 46 257 160 b 397 631 257 557 293 631 z "},"":{"ha":740,"x_min":0,"x_max":0,"o":"m 279 349 b 440 629 279 556 381 617 l 440 114 b 279 349 351 139 279 206 z m 667 179 b 464 108 636 135 533 99 l 464 631 b 538 601 519 631 550 607 b 494 546 517 590 500 572 b 560 433 481 497 510 446 b 674 500 610 419 660 451 b 646 593 683 533 669 572 b 464 654 622 614 563 654 l 464 824 l 440 824 l 440 654 b 104 324 218 643 104 478 b 440 -12 104 161 206 -12 l 440 -164 l 464 -164 l 464 -12 b 686 167 600 6 668 103 z "},"ﬁ":{"ha":821,"x_min":0,"x_max":0,"o":"m 711 157 l 711 642 l 469 642 l 289 642 l 289 710 b 488 1011 289 1010 450 1011 b 571 969 558 1011 600 976 b 513 921 546 963 525 946 b 558 786 488 871 508 811 b 693 832 608 761 669 782 b 686 947 710 867 704 914 b 488 1035 665 985 590 1035 b 117 674 242 1035 117 936 l 117 642 l 25 642 l 28 618 l 117 618 l 117 157 b 61 11 117 86 114 28 l 61 0 l 346 0 l 346 11 b 289 157 297 25 289 81 l 289 618 l 468 618 b 538 504 519 618 538 553 l 538 157 b 483 11 538 86 536 26 l 483 0 l 768 0 l 768 11 b 711 157 718 24 711 81 z "},"ﬂ":{"ha":796,"x_min":0,"x_max":0,"o":"m 722 157 l 722 1036 l 500 990 b 346 1035 450 1021 397 1035 b 103 753 215 1036 103 940 l 103 642 l 11 642 l 14 618 l 103 618 l 103 157 b 47 24 103 86 100 40 l 47 0 l 333 0 l 333 24 b 276 157 283 38 276 81 l 276 618 l 421 618 l 425 642 l 276 642 l 276 697 b 500 967 276 1039 447 989 b 549 878 544 947 549 906 l 549 157 b 494 24 549 86 547 39 l 494 0 l 779 0 l 779 24 b 722 157 729 36 722 81 z "},"Ș":{"ha":856,"x_min":0,"x_max":0,"o":"m 496 -333 b 379 -443 476 -364 443 -408 l 364 -424 b 439 -269 443 -362 461 -272 b 361 -236 411 -267 383 -258 b 360 -74 315 -193 315 -119 b 522 -74 404 -29 478 -29 b 496 -333 592 -143 540 -267 z m 578 524 l 364 665 b 388 967 183 783 238 967 b 721 690 610 967 694 764 l 744 690 l 744 924 b 388 990 744 924 625 990 b 100 885 168 990 100 885 b 256 471 -15 733 58 594 l 469 336 b 444 11 639 213 593 11 b 88 340 197 11 118 256 l 64 340 l 64 74 b 444 -12 64 74 175 -12 b 733 101 668 -12 733 101 b 578 524 838 253 761 403 z "},"ș":{"ha":617,"x_min":0,"x_max":0,"o":"m 371 -333 b 254 -443 351 -364 318 -408 l 239 -424 b 314 -269 318 -362 336 -272 b 236 -236 286 -267 258 -258 b 235 -74 190 -193 190 -119 b 397 -74 279 -29 353 -29 b 371 -333 467 -143 415 -267 z m 421 360 l 281 447 b 289 631 160 524 199 631 b 494 457 432 631 476 506 l 518 457 l 518 613 b 289 654 518 613 449 654 b 97 585 150 654 97 585 b 192 290 21 485 57 372 l 332 206 b 322 11 438 136 421 11 b 94 226 160 11 115 172 l 71 226 l 71 51 b 322 -12 71 51 154 -12 b 517 63 464 -12 517 63 b 421 360 586 163 544 283 z "},"Ț":{"ha":969,"x_min":0,"x_max":0,"o":"m 524 -333 b 407 -443 504 -364 471 -408 l 392 -424 b 467 -269 471 -362 489 -272 b 389 -236 439 -267 411 -258 b 388 -74 343 -193 343 -119 b 550 -74 432 -29 506 -29 b 524 -333 619 -143 568 -267 z m 26 978 l 26 699 l 50 699 b 356 954 61 947 356 954 l 382 954 l 382 168 b 264 24 382 74 322 24 l 264 0 l 701 0 l 701 24 b 583 168 643 24 583 74 l 583 954 l 610 954 b 917 699 610 954 906 947 l 940 699 l 940 978 l 26 978 z "},"ț":{"ha":492,"x_min":0,"x_max":0,"o":"m 321 -333 b 204 -443 301 -364 268 -408 l 189 -424 b 264 -269 268 -362 286 -272 b 186 -236 236 -267 208 -258 b 185 -74 140 -193 140 -119 b 347 -74 229 -29 303 -29 b 321 -333 417 -143 365 -267 z m 374 86 b 271 204 304 86 271 126 l 271 618 l 431 618 l 436 642 l 271 642 l 271 857 l 97 828 l 97 642 l 24 642 l 28 618 l 97 618 l 97 200 b 272 -12 97 32 163 -12 b 478 122 365 -12 450 57 l 457 135 b 374 86 444 114 414 86 z "}}}
